<svg xmlns="http://www.w3.org/2000/svg" width="512" height="512" viewBox="0 0 512 512" version="1.1">
	<path d="M 213.299 37.901 C 208.989 40.608, 206.649 45.343, 207.283 50.074 C 207.645 52.774, 212.292 60.550, 223.893 77.871 C 232.752 91.098, 240 102.329, 240 102.829 C 240 103.329, 186.397 183.110, 120.881 280.119 C 55.366 377.129, 1.366 457.542, 0.881 458.815 C -2.575 467.896, 6.343 477.600, 15.804 475.053 C 17.908 474.486, 20.556 473.005, 21.688 471.761 C 22.820 470.518, 30.215 459.825, 38.123 448 L 52.500 426.500 53 447.733 L 53.500 468.967 56.769 472.233 L 60.038 475.500 254.554 475.758 C 467.740 476.040, 452.691 476.448, 456.741 470.278 C 458.227 468.013, 458.578 464.420, 459 447.145 L 459.500 426.692 473.823 448.229 C 481.701 460.074, 489.413 470.980, 490.961 472.463 C 496.877 478.130, 506.495 476.196, 510.669 468.500 C 512.910 464.369, 513.793 458.392, 512 459.500 C 511.450 459.840, 511 459.618, 511 459.008 C 511 458.135, 361.437 235.668, 285.387 123.423 L 271.107 102.346 287.613 78.195 C 297.899 63.145, 304.321 52.794, 304.657 50.725 C 306.240 40.969, 295.815 33.147, 286.880 37.387 C 284.260 38.630, 280.452 43.494, 269.998 58.953 C 262.574 69.932, 256.275 78.929, 256 78.946 C 255.725 78.964, 249.894 70.653, 243.043 60.478 C 236.192 50.303, 229.363 40.806, 227.869 39.374 C 224.155 35.817, 217.663 35.160, 213.299 37.901 M 166.636 257.403 L 78 388.806 78 419.903 L 78 451 121.012 451 L 164.025 451 167.327 445.750 C 169.143 442.863, 187.677 410.906, 208.513 374.735 C 232.463 333.159, 247.336 308.337, 248.949 307.249 C 252.513 304.846, 259.804 304.975, 263.150 307.500 C 264.748 308.706, 281.988 337.600, 306.558 380.250 L 347.314 451 390.657 451 L 434 451 434 419.950 L 434 388.899 345.312 257.450 C 296.534 185.152, 256.320 126, 255.948 126 C 255.576 126, 215.385 185.131, 166.636 257.403 M 225.189 396.336 C 208.585 425.121, 195 449.196, 195 449.836 C 195 450.709, 210.276 451, 256 451 C 295.925 451, 317 450.655, 317 450.002 C 317 448.698, 256.704 344, 255.953 344 C 255.637 344, 241.794 367.551, 225.189 396.336" stroke="none" fill="#000000" fill-rule="evenodd"/>
</svg>