<?xml version="1.0" encoding="UTF-8"?>
<svg version="1.1" xmlns="http://www.w3.org/2000/svg" width="512" height="512">
<path d="M0 0 C3.15050794 3.6755926 3.37120784 6.96701217 3.49609375 11.62109375 C2.33931817 17.16815143 -2.19508988 21.52150334 -5.6875 25.8125 C-15.5872315 38.45621888 -21.65331519 52.6344692 -26 68 C-26.3403125 69.12664062 -26.680625 70.25328125 -27.03125 71.4140625 C-31.39365272 88.66171031 -31.13762417 110.99135027 -26 128 C-25.80664062 128.68352539 -25.61328125 129.36705078 -25.4140625 130.07128906 C-20.84089245 146.09855632 -13.78842329 160.23419168 -3.26171875 173.16796875 C3.56746359 181.71919016 3.56746359 181.71919016 3.4375 186.5625 C3.43556641 187.64724609 3.43556641 187.64724609 3.43359375 188.75390625 C2.60377022 193.05254167 0.76690584 195.42730341 -2.71484375 198.02734375 C-24.06709793 210.68340714 -45.12639684 218.64025717 -70.1875 218.4375 C-70.85842682 218.43379395 -71.52935364 218.43008789 -72.22061157 218.42626953 C-103.57245753 218.1812571 -130.92743894 207.09843819 -154 186 C-154.79921875 185.28328125 -155.5984375 184.5665625 -156.421875 183.828125 C-167.74362924 173.14873979 -175.73457615 160.12864173 -182 146 C-182.48210937 144.92234375 -182.96421875 143.8446875 -183.4609375 142.734375 C-188.48553557 130.61443542 -191.53879087 117.12524309 -192 104 C-192.0515625 102.98550781 -192.103125 101.97101563 -192.15625 100.92578125 C-193.07182729 68.07944612 -179.96993311 37.4709465 -157.734375 13.69165039 C-116.42787762 -28.87307837 -48.1416321 -33.9370517 0 0 Z " fill="#000000" transform="translate(239,158)"/>
<path d="M0 0 C2.41564904 1.90422785 4.76668872 3.86135108 7.1015625 5.86328125 C8.05095703 6.63091797 8.05095703 6.63091797 9.01953125 7.4140625 C30.10995232 24.68679145 44.74563237 53.3585864 47.87011719 80.19824219 C50.80269949 113.9662468 43.75096427 146.86985718 21.78320312 173.45898438 C4.88799829 193.13348698 -15.83993507 206.81073366 -40.8984375 213.86328125 C-42.58839844 214.34474609 -42.58839844 214.34474609 -44.3125 214.8359375 C-75.35935748 222.10726033 -108.95073416 216.24054754 -135.9609375 199.67578125 C-136.62182373 199.27214355 -137.28270996 198.86850586 -137.96362305 198.45263672 C-141.67163475 196.05128575 -144.10312031 193.92839231 -145.8984375 189.86328125 C-146.33203125 187.6171875 -146.33203125 187.6171875 -146.3359375 185.42578125 C-146.36494141 184.34490234 -146.36494141 184.34490234 -146.39453125 183.2421875 C-145.23775567 177.69512982 -140.70334762 173.34177791 -137.2109375 169.05078125 C-127.311206 156.40706237 -121.24512231 142.22881205 -116.8984375 126.86328125 C-116.38796875 125.17332031 -116.38796875 125.17332031 -115.8671875 123.44921875 C-111.50610707 106.20679892 -111.75493445 83.8659555 -116.8984375 66.86328125 C-117.09711426 66.16912109 -117.29579102 65.47496094 -117.50048828 64.75976562 C-122.48193225 47.52061121 -130.27239179 33.4024532 -141.765625 19.625 C-145.53047428 14.98648952 -146.99622535 11.92612821 -146.8984375 5.86328125 C-145.12140704 -0.83475664 -139.57789237 -3.83875497 -133.8984375 -7.13671875 C-90.98064958 -30.31702363 -39.79452321 -29.3363938 0 0 Z " fill="#000000" transform="translate(415.8984375,159.13671875)"/>
</svg>
