<?xml version="1.0" encoding="UTF-8"?>
<svg version="1.1" xmlns="http://www.w3.org/2000/svg" width="512" height="512">
<path d="M0 0 C25.47055878 -0.07029494 50.94110287 -0.12308809 76.41173935 -0.15543652 C88.24002082 -0.17086026 100.06824177 -0.1918632 111.89648438 -0.22631836 C122.21422502 -0.25635899 132.53192181 -0.27560759 142.84970498 -0.28226548 C148.30539399 -0.28615305 153.7609576 -0.29519413 159.21660614 -0.31719017 C164.36790359 -0.33778781 169.51902584 -0.34378757 174.67036057 -0.33932304 C176.54543642 -0.34013797 178.4205191 -0.34596328 180.29555893 -0.35761642 C196.54298888 -0.45350658 212.78444875 0.92927729 228.4375 5.5625 C229.29037598 5.81225586 230.14325195 6.06201172 231.02197266 6.31933594 C268.92373353 18.03581223 298.8342657 45.00249941 318.08227539 79.12646484 C319 81 319 81 319.90234375 84.41015625 C320.26457031 85.26480469 320.62679688 86.11945313 321 87 C323.72280976 88.17325273 323.72280976 88.17325273 327.0625 88.5 C362.00287214 94.67434564 394.76836479 117.72181095 415.20776367 146.30102539 C425.07398191 160.60137374 432.3807024 175.89389071 437.25 192.5625 C437.61967896 193.81969849 437.61967896 193.81969849 437.99682617 195.10229492 C441.44875373 207.45072157 442.41191147 219.6796826 442.375 232.4375 C442.37368576 233.55309296 442.37368576 233.55309296 442.37234497 234.69122314 C442.2169595 274.86024876 426.39571525 311.55007065 398.25 340.1875 C379.82659432 358.42139047 355.93993947 371.44483005 330.875 377.875 C330.13733398 378.06610352 329.39966797 378.25720703 328.63964844 378.45410156 C313.40299823 382.06192033 298.00030604 382.28150966 282.43359375 382.1953125 C280.41764976 382.19157147 278.40170392 382.18872967 276.38575745 382.18673706 C271.13997163 382.17918629 265.89430072 382.15961381 260.64855957 382.1373291 C255.27158156 382.1166838 249.89458455 382.10769584 244.51757812 382.09765625 C234.01166891 382.0763578 223.5058441 382.04232841 213 382 C212.94918022 382.72922071 212.89836044 383.45844141 212.84600067 384.20975971 C212.29543983 391.48743755 211.37330778 398.61727238 210.15820312 405.8112793 C209.97434555 406.92333237 209.79048798 408.03538544 209.60105896 409.18113708 C208.99926923 412.81298322 208.39049226 416.44361597 207.78125 420.07421875 C207.35878219 422.61052916 206.93662723 425.14689171 206.51477051 427.68330383 C205.6335638 432.97486026 204.74905065 438.26584775 203.86181641 443.55639648 C202.83563993 449.67576619 201.81591576 455.79618535 200.79952478 461.91718739 C199.81921325 467.81996272 198.83433153 473.72196412 197.84739685 479.62363625 C197.42839184 482.13180186 197.01055473 484.64016287 196.59388733 487.14871788 C196.01380141 490.63717314 195.42853493 494.12471888 194.84179688 497.61206055 C194.66929916 498.65559692 194.49680145 499.6991333 194.31907654 500.77429199 C194.07937889 502.18916145 194.07937889 502.18916145 193.83483887 503.63261414 C193.69694695 504.45678172 193.55905502 505.28094931 193.41698456 506.13009167 C193 508 193 508 192 509 C189.93705722 509.09681822 187.87073958 509.12186923 185.80552673 509.12025452 C185.15130393 509.12110894 184.49708113 509.12196337 183.82303339 509.12284368 C181.61498657 509.12450028 179.40701452 509.11897421 177.19897461 509.11352539 C175.62249249 509.11324353 174.04601024 509.11340123 172.4695282 509.1139679 C168.17632451 509.11425592 163.88314851 509.1083584 159.58995128 509.10139394 C155.10827317 509.09516121 150.62659449 509.09455667 146.14491272 509.09336853 C137.65219091 509.09025497 129.15948191 509.08204126 120.66676575 509.07201904 C111.00066461 509.06085866 101.33456288 509.05534764 91.66845691 509.05032361 C71.77896412 509.03985866 51.88948286 509.02225875 32 509 C33.68567867 496.96483809 35.43231691 484.9501755 37.4453125 472.96484375 C37.7683284 471.0260006 37.7683284 471.0260006 38.09786987 469.04798889 C38.54499745 466.3653114 38.99374442 463.68291222 39.44384766 461.00073242 C40.01934669 457.57081196 40.59111336 454.14028122 41.16179085 450.70955563 C41.71293858 447.39853484 42.26669192 444.08795198 42.8203125 440.77734375 C43.02447784 439.55144028 43.22864319 438.3255368 43.43899536 437.06248474 C43.62944427 435.92932327 43.81989319 434.7961618 44.01611328 433.62866211 C44.18249298 432.6349913 44.34887268 431.6413205 44.52029419 430.61753845 C44.92774772 428.39424812 45.45179232 426.19283073 46 424 C7.72 424 -30.56 424 -70 424 C-68.87499723 409.37496401 -68.87499723 409.37496401 -67.81776428 403.03687096 C-67.64426879 401.98243448 -67.64426879 401.98243448 -67.46726835 400.90669626 C-67.0851498 398.59275105 -66.69508572 396.28022356 -66.30493164 393.96762085 C-66.0238133 392.2757006 -65.74319227 390.58369766 -65.46302128 388.89162028 C-64.69698903 384.27408353 -63.92393958 379.6577459 -63.14967012 375.04158425 C-62.31392174 370.05125455 -61.48475754 365.05983038 -60.65475464 360.06854248 C-59.03029629 350.3061142 -57.39981118 340.54470178 -55.76726985 330.78362231 C-53.8665976 319.41795867 -51.97195058 308.05129316 -50.07755148 296.68458255 C-46.69859087 276.41150498 -43.31421411 256.13933536 -39.92675781 235.86767578 C-36.63833606 216.18864031 -33.35368054 196.50898117 -30.07324219 176.82861328 C-29.87095461 175.6150307 -29.66866704 174.40144812 -29.46024954 173.15109031 C-29.25831437 171.93961789 -29.0563792 170.72814546 -28.84832478 169.47996175 C-28.44175726 167.04084705 -28.03518779 164.60173268 -27.62861633 162.16261864 C-27.32786925 160.35836868 -27.32786925 160.35836868 -27.02104646 158.51766922 C-23.89520871 139.76607872 -20.76578781 121.01508601 -17.63606125 102.26414423 C-16.50110116 95.46400161 -15.36670801 88.66376469 -14.23273015 81.8634582 C-12.43540105 71.08513989 -10.63655451 60.30707747 -8.83444238 49.52955775 C-8.01084529 44.60384816 -7.18801908 39.67801313 -6.36727524 34.75182724 C-5.61685495 30.24790715 -4.86420422 25.74436585 -4.10972202 21.24112447 C-3.83634536 19.60702241 -3.56379628 17.97278166 -3.2921325 16.33839397 C-2.92439695 14.1267884 -2.55370792 11.91569816 -2.18223572 9.70471764 C-1.97658965 8.47349658 -1.77094358 7.24227553 -1.55906582 5.97374475 C-1 3 -1 3 0 0 Z M37 43 C35.03232246 50.23377653 33.82457222 57.55411387 32.61523438 64.94628906 C32.38103688 66.36250835 32.14654494 67.77867897 31.91178513 69.19480515 C31.40414027 72.26101355 30.89859335 75.32755795 30.39466095 78.39437866 C29.57658646 83.37291873 28.75383663 88.35067997 27.93060303 93.32836914 C26.73968985 100.5322622 25.55099509 107.73651825 24.3638916 114.94104004 C21.53587939 132.10385513 18.69956245 149.26529872 15.86328888 166.42675018 C15.21205098 170.36725848 14.56099586 174.30779692 13.91008759 178.24835968 C9.24390704 206.49581117 4.5480247 234.73816726 -0.17654037 262.97591114 C-0.7899762 266.64275419 -1.40307524 270.30965351 -2.01615524 273.97655606 C-4.64458466 289.69736969 -7.27387416 305.41803391 -9.91280675 321.1370883 C-10.99913572 327.60911784 -12.08264131 334.08161607 -13.16397548 340.55448198 C-13.9056218 344.9930554 -14.65064214 349.43104328 -15.39840221 353.86859059 C-15.95473481 357.17649916 -16.50579302 360.48528173 -17.05761719 363.79394531 C-17.35640652 365.55736204 -17.35640652 365.55736204 -17.66123199 367.35640335 C-17.92859287 368.96870897 -17.92859287 368.96870897 -18.20135498 370.61358643 C-18.356721 371.53987476 -18.51208702 372.4661631 -18.6721611 373.42052078 C-19.10506731 376.3933118 -19.10506731 376.3933118 -19 381 C4.76 381 28.52 381 53 381 C54.19810041 376.80664857 55.25586383 373.09020812 55.96182251 368.87071228 C56.12444077 367.91054703 56.28705902 366.95038177 56.4546051 365.96112061 C56.62507858 364.92972961 56.79555206 363.89833862 56.97119141 362.83569336 C57.1568013 361.73240189 57.34241119 360.62911041 57.53364563 359.49238586 C58.14373344 355.85888075 58.74787653 352.22441756 59.3515625 348.58984375 C59.77447502 346.0582783 60.1976044 343.52674906 60.62094116 340.99525452 C61.50616781 335.69576636 62.38845192 330.39580017 63.26855469 325.09545898 C64.28451313 318.97732659 65.30695854 312.86030385 66.33267272 306.7438001 C67.3216333 300.84507361 68.30513399 294.94545152 69.28641891 289.04544258 C69.70358406 286.54096467 70.12223813 284.03673429 70.54240799 281.53275871 C71.1288202 278.034236 71.70901054 274.53473624 72.28759766 271.03491211 C72.4621196 270.00149689 72.63664154 268.96808167 72.81645203 267.90335083 C73.58468007 263.21825633 74.22086359 258.76771238 74 254 C74.60793113 254.00276538 75.21586226 254.00553076 75.84221554 254.00837994 C90.71094962 254.0749558 105.57966911 254.12443305 120.44851589 254.15543652 C127.63931608 254.17083236 134.83001611 254.1917804 142.02075195 254.22631836 C148.29633807 254.25644609 154.57185157 254.27562774 160.84750801 254.28226548 C164.16306893 254.28613871 167.4783767 254.29671844 170.79388237 254.31719017 C206.19027228 254.52688106 235.80374269 247.4077412 262 222 C277.1734401 206.88338927 285.72550565 187.72899948 290 167 C290.28810547 165.64841797 290.28810547 165.64841797 290.58203125 164.26953125 C294.30073081 135.18026463 287.30400965 107.59759893 269.70214844 84.28076172 C252.12191796 61.60136418 226.51797683 47.40632317 198.09760374 43.64591706 C190.76571755 42.75145166 183.44315448 42.73398585 176.06860352 42.77294922 C174.53931689 42.77351517 173.01002972 42.7731932 171.48074341 42.77206421 C167.38047358 42.77149685 163.28032384 42.78314969 159.18008161 42.79721212 C154.87599648 42.80982382 150.57190776 42.81089813 146.26780701 42.81326294 C138.14031587 42.81944733 130.01287937 42.83581642 121.88541216 42.85596192 C112.62285405 42.8784163 103.36029315 42.8893382 94.09771454 42.89935279 C75.06511221 42.92018579 56.03256052 42.9553018 37 43 Z M334 136 C334.03480469 137.093125 334.06960938 138.18625 334.10546875 139.3125 C334.96256376 178.71289797 323.56761841 215.80015311 298 246 C297.236875 246.91652344 296.47375 247.83304687 295.6875 248.77734375 C290.36047463 254.95098565 284.46062082 260.04415418 278 265 C277.14792969 265.66773438 276.29585937 266.33546875 275.41796875 267.0234375 C263.42305801 276.12302496 250.22014171 283.08621494 236 288 C235.01676758 288.3400708 235.01676758 288.3400708 234.01367188 288.68701172 C215.62801609 294.88487114 197.09034708 296.447211 177.796875 296.51171875 C175.85246697 296.52862364 173.90806947 296.54678132 171.96368408 296.56611633 C166.92024028 296.6129931 161.87683914 296.64320106 156.83325195 296.66955566 C151.65697797 296.69968126 146.48085052 296.74609878 141.3046875 296.79101562 C131.20320266 296.87633664 121.10168703 296.94399276 111 297 C107.642479 316.96735053 104.28692854 336.93503127 100.93368721 356.90310097 C99.37647622 366.17579084 97.81863438 375.44837388 96.25927734 384.72070312 C94.89924554 392.80780439 93.540428 400.89510861 92.18303382 408.98265302 C91.46508247 413.26005347 90.74654683 417.53735381 90.02655411 421.81441116 C89.34709806 425.85078136 88.66928177 429.88742367 87.99265289 433.92426872 C87.74575564 435.39559087 87.49829 436.86681778 87.25017166 438.33793449 C86.90769981 440.36903641 86.56740703 442.40049322 86.22756958 444.43203735 C85.94273555 446.12721465 85.94273555 446.12721465 85.65214729 447.85663795 C84.7018347 453.89436771 83.86437578 459.94936953 83 466 C107.09 466 131.18 466 156 466 C166.395 403.63 166.395 403.63 177 340 C236.5 339.625 236.5 339.625 255.20117188 339.52197266 C260.79328329 339.48200826 260.79328329 339.48200826 266.38537598 339.43954468 C268.85215066 339.42200289 271.31895331 339.40813601 273.7857666 339.39730835 C310.67311141 339.22809766 341.83024234 333.47727508 369 307 C369.64324219 306.43023437 370.28648437 305.86046875 370.94921875 305.2734375 C387.73987687 290.00920285 397.78618677 263.98090436 399.13867188 241.71728516 C400.15574763 216.0859789 394.94131147 191.65514014 379 171 C378.59942383 170.47744629 378.19884766 169.95489258 377.78613281 169.41650391 C366.70390316 155.1382913 351.70203587 141.21601973 334 136 Z " fill="#000000" transform="translate(70,1)"/>
</svg>
