<?xml version="1.0" encoding="UTF-8"?>
<svg version="1.1" xmlns="http://www.w3.org/2000/svg" width="512" height="512">
<path d="M0 0 C1.53110413 0.00323273 1.53110413 0.00323273 3.09313965 0.00653076 C17.73579998 0.05619901 32.04738899 0.36670312 46.4375 3.3125 C47.43410645 3.50585938 48.43071289 3.69921875 49.45751953 3.8984375 C90.53886982 12.01574654 127.65217585 29.3790406 160.4375 55.3125 C161.2433252 55.94260986 161.2433252 55.94260986 162.06542969 56.58544922 C176.88988678 68.27055463 191.20245085 82.12552748 202.4375 97.3125 C202.91171387 97.93737305 203.38592773 98.56224609 203.87451172 99.20605469 C212.35298032 110.39440534 219.7609782 121.96657453 226.4375 134.3125 C226.99195801 135.33657959 226.99195801 135.33657959 227.55761719 136.38134766 C259.69905953 196.50213773 264.59612889 267.36251447 245.6875 332.375 C233.47674866 372.3428739 211.32595046 407.41012323 182.4375 437.3125 C181.93686035 437.83505371 181.4362207 438.35760742 180.92041016 438.89599609 C174.49748493 445.58170721 167.78586941 451.66552862 160.4375 457.3125 C159.7671875 457.83215332 159.096875 458.35180664 158.40625 458.88720703 C117.19969496 490.65361599 64.94479257 512.25702727 12.390625 512.515625 C11.45812927 512.52132507 10.52563354 512.52702515 9.56488037 512.53289795 C7.59844065 512.54228439 5.63198565 512.5488564 3.66552734 512.55273438 C0.7363534 512.5623398 -2.19208674 512.59338313 -5.12109375 512.625 C-22.69406566 512.72412247 -39.79630944 510.71968314 -56.9375 506.8125 C-57.86820313 506.61269531 -58.79890625 506.41289062 -59.7578125 506.20703125 C-65.24321916 504.99063457 -70.3502839 503.41203435 -75.5625 501.3125 C-73.98831086 495.54984331 -71.08433651 490.84059964 -68.0625 485.75 C-63.88535407 478.54919797 -59.88579064 471.30271616 -56.25 463.8125 C-55.693125 462.69766235 -55.693125 462.69766235 -55.125 461.56030273 C-46.35456164 443.11353205 -41.82067931 422.73481407 -36.66485596 403.05682373 C-35.75097198 399.57497226 -34.82920124 396.09520944 -33.90820312 392.61523438 C-32.11882264 385.84961694 -30.3378049 379.0818259 -28.5625 372.3125 C-25.88172475 374.96593974 -23.34745376 377.51720004 -21.125 380.5625 C-13.50151681 389.5152059 -1.51737349 394.85536948 9.4375 398.3125 C10.16839844 398.54582031 10.89929688 398.77914063 11.65234375 399.01953125 C39.45342983 406.4367116 69.6629086 397.17325734 93.76953125 383.41015625 C107.16705781 374.9268496 118.9094749 363.95269411 128.4375 351.3125 C128.85306152 350.76464844 129.26862305 350.21679688 129.69677734 349.65234375 C151.97005646 319.71149915 161.6590042 282.21910886 161.6875 245.375 C161.68817474 244.59248871 161.68884949 243.80997742 161.68954468 243.00375366 C161.64239159 208.60800222 150.60470573 176.84384858 128.4375 150.3125 C128.01098145 149.79945313 127.58446289 149.28640625 127.14501953 148.7578125 C120.12111887 140.42535676 112.24949831 133.69205647 103.4375 127.3125 C102.84984863 126.88195312 102.26219727 126.45140625 101.65673828 126.0078125 C77.13252207 108.22590346 45.6469423 97.39977871 15.2578125 97.07421875 C14.49600174 97.0644249 13.73419098 97.05463104 12.94929504 97.04454041 C-38.10391787 96.52435226 -84.42121498 109.08232875 -121.5625 145.3125 C-149.5724758 173.67448627 -162.02336833 213.084603 -161.92822266 252.25708008 C-161.77889403 263.01079651 -160.46129546 272.97013093 -157.5625 283.3125 C-157.35351074 284.075625 -157.14452148 284.83875 -156.92919922 285.625 C-152.40660639 301.66919449 -145.00886087 316.29239805 -134.5625 329.3125 C-134.01207031 330.02664063 -133.46164063 330.74078125 -132.89453125 331.4765625 C-126.53812284 339.29751156 -117.90337388 345.54337545 -108.5625 349.3125 C-106.39043863 348.96435551 -106.39043863 348.96435551 -104.5625 348.3125 C-103.39118015 343.85020209 -102.2340004 339.38456069 -101.08959961 334.9152832 C-100.69858196 333.39638606 -100.30376304 331.87846209 -99.9050293 330.36157227 C-99.33152767 328.17711102 -98.77192723 325.98947912 -98.21484375 323.80078125 C-98.03469223 323.12662674 -97.85454071 322.45247223 -97.66893005 321.75788879 C-96.42441288 316.78509961 -96.31236111 313.42078508 -98.9453125 308.98046875 C-99.80769531 307.75263672 -99.80769531 307.75263672 -100.6875 306.5 C-115.58806879 283.70549538 -120.24985331 255.49411287 -114.9375 228.875 C-108.74047723 200.2638139 -92.65795987 174.62299385 -68.0390625 158.40625 C-47.51469689 145.78311751 -25.35584374 139.65885391 -1.3125 139.875 C-0.24231628 139.87906357 -0.24231628 139.87906357 0.8494873 139.88320923 C27.30397381 140.03481827 53.49081139 147.13885038 73.4375 165.3125 C74.41460937 166.19679687 75.39171875 167.08109375 76.3984375 167.9921875 C94.77307836 185.18267838 105.86405279 209.87251803 106.72792053 235.0536499 C106.80668773 238.55700782 106.82262686 242.05836032 106.8125 245.5625 C106.81162384 246.30583588 106.81074768 247.04917175 106.80984497 247.81503296 C106.68926958 279.00484166 99.33397225 310.59386849 79.4375 335.3125 C78.89738281 336.01632812 78.35726563 336.72015625 77.80078125 337.4453125 C66.41941202 351.49978782 49.34896945 360.07091954 31.5625 362.125 C19.21086826 362.8590763 8.40153901 360.12208816 -1.65625 352.78515625 C-8.27382155 346.84965896 -12.88278331 337.60473447 -13.8359375 328.78125 C-14.07365972 321.83244657 -13.16275716 315.79375585 -11.41796875 309.09765625 C-11.0852169 307.79520714 -11.0852169 307.79520714 -10.7457428 306.46644592 C-8.06081629 296.1269669 -4.89534734 285.9331755 -1.71655273 275.73706055 C1.12004367 266.61189217 3.76861884 257.50353358 5.77734375 248.15625 C6.02303856 247.03107216 6.02303856 247.03107216 6.2736969 245.88316345 C8.72857946 233.88156174 9.32124067 220.40235953 3.4375 209.3125 C-1.26863895 202.40946875 -6.78712296 197.6956 -14.9765625 195.734375 C-26.26717336 193.89240223 -36.18208147 195.98554443 -45.46875 202.65625 C-58.06342449 212.61920146 -65.10770271 227.55935745 -67.5625 243.3125 C-67.8797283 247.29575043 -67.94303982 251.25517125 -67.9375 255.25 C-67.93733887 256.34086914 -67.93717773 257.43173828 -67.93701172 258.55566406 C-67.79846689 268.50464126 -66.94572759 279.63449522 -62.3671875 288.671875 C-60.04461425 296.29352315 -63.40847162 305.69516202 -65.21459961 313.19702148 C-65.48463303 314.34148743 -65.75466644 315.48595337 -66.03288269 316.6651001 C-66.92094246 320.42269631 -67.81794832 324.1780977 -68.71484375 327.93359375 C-69.3378123 330.56062304 -69.95865982 333.1881521 -70.57948303 335.81568909 C-72.04545218 342.01538608 -73.51747824 348.21362613 -74.99214798 354.41125876 C-77.62944457 365.49553881 -80.25832191 376.58181388 -82.8820706 387.66930825 C-83.94828751 392.17358115 -85.01976504 396.67658336 -86.09251404 401.17930603 C-86.65546581 403.55236994 -87.21830244 405.92546117 -87.78100586 408.29858398 C-88.03406494 409.35606339 -88.28712402 410.41354279 -88.54785156 411.50306702 C-92.08642401 426.46921201 -93.7459349 440.74096963 -93.6875 456.125 C-93.68556641 457.36241943 -93.68363281 458.59983887 -93.68164062 459.87475586 C-93.64778889 467.00665789 -93.49812977 474.06105517 -92.78125 481.16015625 C-92.45399846 485.87608465 -92.52470185 490.58720666 -92.5625 495.3125 C-121.77963762 483.49010153 -148.42349215 467.86435568 -171.5625 446.3125 C-172.93325183 445.12009878 -174.30807863 443.93236117 -175.6875 442.75 C-222.44938728 401.9156759 -250.7128215 338.18558969 -255.3515625 276.97705078 C-256.57954227 255.64374488 -256.04125302 234.41971091 -252.5625 213.3125 C-252.42859863 212.46300781 -252.29469727 211.61351562 -252.15673828 210.73828125 C-245.95301041 172.41804215 -229.5326689 135.46551881 -206.5625 104.3125 C-205.86108887 103.35657959 -205.86108887 103.35657959 -205.14550781 102.38134766 C-197.98229315 92.71435998 -189.91426992 83.95740019 -181.5625 75.3125 C-181.06186035 74.78994629 -180.5612207 74.26739258 -180.04541016 73.72900391 C-173.61972121 67.04041599 -166.88215726 61.00442928 -159.5625 55.3125 C-158.65113281 54.59578125 -157.73976563 53.8790625 -156.80078125 53.140625 C-136.94046725 37.85929199 -115.02759687 25.14446432 -91.5625 16.3125 C-90.67143555 15.97621582 -89.78037109 15.63993164 -88.86230469 15.29345703 C-60.0841418 4.63802942 -30.57191252 -0.1159013 0 0 Z " fill="#E60022" transform="translate(255.5625,-0.31250000000000006)"/>
</svg>
