<?xml version="1.0" encoding="UTF-8"?>
<svg version="1.1" xmlns="http://www.w3.org/2000/svg" width="64" height="64">
<path d="M0 0 C3.82834555 0.64351795 5.81999362 2.82935942 8.44848633 5.49462891 C8.97411667 6.01310394 9.49974701 6.53157898 10.04130554 7.06576538 C11.147541 8.16422807 12.24742916 9.26911508 13.34130859 10.37988281 C15.0155934 12.07337316 16.71708768 13.73551628 18.4230957 15.39697266 C19.49583328 16.46941982 20.56685693 17.54358469 21.63598633 18.61962891 C22.14527176 19.1136319 22.65455719 19.60763489 23.17927551 20.11660767 C25.48619503 22.50145098 26.65370479 24.18833177 27.34448242 27.45556641 C26.50318265 31.43473946 24.46374453 33.54859998 21.63598633 36.29150391 C21.11513962 36.8157193 20.59429291 37.33993469 20.05766296 37.8800354 C18.95602542 38.98137471 17.84692053 40.07528877 16.73095703 41.16210938 C15.02625274 42.82710139 13.3528825 44.51949741 11.6809082 46.21728516 C10.60518127 47.28545368 9.52776153 48.35192067 8.44848633 49.41650391 C7.69973991 50.17572647 7.69973991 50.17572647 6.93586731 50.95028687 C4.65813985 53.13793147 3.14504143 54.38007534 -0.00390625 54.92675781 C-3.38072058 54.23069334 -4.42208455 52.22254474 -6.28979492 49.45556641 C-4.86679379 44.76652052 -2.13283158 41.93946166 1.33520508 38.64306641 C2.10864258 37.88993164 2.10864258 37.88993164 2.89770508 37.12158203 C4.16179662 35.89260414 5.43509314 34.6731064 6.71020508 33.45556641 C4.76416382 33.41798218 4.76416382 33.41798218 2.77880859 33.37963867 C-2.01638349 33.28574889 -6.81142442 33.18548391 -11.60644531 33.08325195 C-13.68518549 33.03983307 -15.76396295 32.99816329 -17.84277344 32.95825195 C-20.82392637 32.90071719 -23.80489041 32.83697522 -26.78588867 32.77197266 C-27.7212999 32.75526016 -28.65671112 32.73854767 -29.62046814 32.72132874 C-30.48128494 32.70138351 -31.34210175 32.68143829 -32.22900391 32.66088867 C-32.99067368 32.64534439 -33.75234344 32.62980011 -34.53709412 32.61378479 C-36.28979492 32.45556641 -36.28979492 32.45556641 -37.28979492 31.45556641 C-37.42260742 29.64306641 -37.42260742 29.64306641 -37.41479492 27.45556641 C-37.41737305 26.73369141 -37.41995117 26.01181641 -37.42260742 25.26806641 C-37.28979492 23.45556641 -37.28979492 23.45556641 -36.28979492 22.45556641 C-34.93995744 22.33371497 -33.58404791 22.2778981 -32.22900391 22.25024414 C-30.9377787 22.22032631 -30.9377787 22.22032631 -29.62046814 22.18980408 C-28.2173513 22.16473534 -28.2173513 22.16473534 -26.78588867 22.13916016 C-25.83287369 22.11837906 -24.8798587 22.09759796 -23.89796448 22.07618713 C-20.84115082 22.01058463 -17.78424836 21.95175723 -14.72729492 21.89306641 C-12.66022829 21.84989135 -10.59317078 21.8062774 -8.52612305 21.76220703 C-3.44743897 21.65489239 1.63133478 21.5536555 6.71020508 21.45556641 C5.85555664 20.63572266 5.0009082 19.81587891 4.12036133 18.97119141 C3.00408206 17.88305363 1.88821822 16.79448957 0.77270508 15.70556641 C0.20874023 15.16673828 -0.35522461 14.62791016 -0.9362793 14.07275391 C-1.47446289 13.54423828 -2.01264648 13.01572266 -2.56713867 12.47119141 C-3.06463623 11.9894043 -3.56213379 11.50761719 -4.07470703 11.01123047 C-5.53465976 9.14206857 -6.01905089 7.80799906 -6.28979492 5.45556641 C-3.4745324 0.69127598 -3.4745324 0.69127598 0 0 Z " fill="#FFFFFF" transform="translate(37.289794921875,4.54443359375)"/>
</svg>
