<?xml version="1.0" encoding="UTF-8"?>
<svg version="1.1" xmlns="http://www.w3.org/2000/svg" width="512" height="512">
<path d="M0 0 C1.72089844 0.51046875 1.72089844 0.51046875 3.4765625 1.03125 C16.87116443 5.42681782 33.3515027 12.81184704 42.57543945 23.89257812 C45.66805626 27.69974254 45.66805626 27.69974254 50.10888672 29.2043457 C52.57233205 28.80037494 54.81723406 28.15862846 57.1875 27.375 C58.05753662 27.12008789 58.92757324 26.86517578 59.82397461 26.60253906 C62.56608978 25.78096477 65.28171265 24.89696635 68 24 C68.84916992 23.7328418 69.69833984 23.46568359 70.57324219 23.19042969 C83.24090392 19.19762997 95.13633892 13.94003123 107 8 C107.76634766 7.61763184 108.53269531 7.23526367 109.32226562 6.84130859 C111.21566782 5.89585425 113.10795315 4.94816375 115 4 C112.66338038 24.48543226 95.66494798 43.57562753 80.39453125 56.14453125 C78.63123664 57.47714505 76.82235496 58.74936424 75 60 C82.20806681 59.49441048 88.9619465 58.23586654 95.9375 56.375 C96.92516357 56.1157373 97.91282715 55.85647461 98.93041992 55.58935547 C107.30412313 53.32495901 115.37909286 50.46553156 123.45703125 47.3203125 C127 46 127 46 129 46 C124.93471954 57.88985253 113.58026755 68.07566826 105 77 C104.48034668 77.54688477 103.96069336 78.09376953 103.42529297 78.65722656 C101.83618397 80.3241515 100.23251907 81.97583788 98.625 83.625 C98.09640381 84.1809082 97.56780762 84.73681641 97.02319336 85.30957031 C94.22791841 88.15062813 91.6729761 90.3043919 88.1015625 92.1015625 C83.76972513 94.41104352 80.30944778 96.53255906 78 101 C76.25738985 109.72602624 76.77386708 118.79132353 76.95057678 127.64724731 C78.13702585 196.47281687 43.3470042 270.69267908 -3.3046875 320.1171875 C-5.40658902 322.36530826 -7.40748445 324.63700393 -9.375 327 C-18.62702315 337.64094672 -29.77964044 346.54195118 -41 355 C-41.60457031 355.46148437 -42.20914062 355.92296875 -42.83203125 356.3984375 C-94.15620214 395.51285826 -156.71765676 413.21476083 -220.6875 413.25 C-221.78536835 413.25067474 -222.88323669 413.25134949 -224.01437378 413.25204468 C-239.8839596 413.23653359 -255.35505239 412.90508538 -271 410 C-271.969375 409.82839355 -272.93875 409.65678711 -273.9375 409.47998047 C-312.94540255 402.44875577 -349.55405665 388.20687133 -383 367 C-382.67 366.34 -382.34 365.68 -382 365 C-381.36578125 365.0721875 -380.7315625 365.144375 -380.078125 365.21875 C-328.90922169 370.30737022 -272.33764165 356.91085564 -232 324 C-233.29550781 323.79246094 -234.59101563 323.58492188 -235.92578125 323.37109375 C-265.86009808 318.30070283 -293.17271898 305.50136584 -311.30126953 280.18261719 C-326 258.69944143 -326 258.69944143 -326 249 C-325.18917969 249.0721875 -324.37835938 249.144375 -323.54296875 249.21875 C-310.33433181 250.32587673 -298.10046007 249.7201073 -285 248 C-285.52464844 247.8040625 -286.04929687 247.608125 -286.58984375 247.40625 C-289.41351125 246.31624857 -292.20687761 245.16628598 -295 244 C-295.62181152 243.7421875 -296.24362305 243.484375 -296.88427734 243.21875 C-316.80888514 234.82330443 -334.4710797 221.55351825 -346 203 C-346.65742188 201.96359375 -347.31484375 200.9271875 -347.9921875 199.859375 C-358.39000703 182.67354498 -364.0493522 163.17088126 -363 143 C-358.53584118 144.42444152 -354.25606798 146.12231581 -349.9375 147.9375 C-339.91353132 152.02868801 -329.81290494 154.29215746 -319 155 C-320.7274403 153.4147483 -322.45687957 151.83177374 -324.1875 150.25 C-325.63189453 148.92742187 -325.63189453 148.92742187 -327.10546875 147.578125 C-329.88632207 145.03566847 -329.88632207 145.03566847 -332.5546875 143.05078125 C-335.43480807 140.63534467 -337.68179124 137.91890476 -339.9375 134.9375 C-340.37280029 134.36531738 -340.80810059 133.79313477 -341.2565918 133.20361328 C-345.07695117 128.07903534 -348.197831 122.74739168 -351 117 C-351.43957031 116.12988281 -351.87914062 115.25976562 -352.33203125 114.36328125 C-364.06065881 90.09104596 -365.56551935 61.37445343 -357.28613281 35.79443359 C-354.83672121 28.82241561 -351.74216317 22.36329038 -348 16 C-344.17466168 17.51363849 -342.38395623 19.73696338 -339.8984375 22.9609375 C-335.15906939 28.90598535 -330.02075732 34.2768523 -324.625 39.625 C-323.75617188 40.5015625 -322.88734375 41.378125 -321.9921875 42.28125 C-315.97468471 48.28094952 -309.66493684 53.733551 -303 59 C-302.39172363 59.48791016 -301.78344727 59.97582031 -301.15673828 60.47851562 C-284.12468622 74.08695861 -265.57136283 85.6367616 -245.92919922 95.06787109 C-244.12272185 95.94070463 -242.32842176 96.83861592 -240.53515625 97.73828125 C-206.38973363 114.44610897 -169.53128701 121.4447062 -132 125 C-132.14074951 124.16815186 -132.28149902 123.33630371 -132.42651367 122.47924805 C-133.49829936 115.89123794 -134.36426482 109.4901612 -134.3125 102.8125 C-134.30686035 102.01279785 -134.3012207 101.2130957 -134.29541016 100.38916016 C-133.68394268 69.55545879 -120.59007916 43.85415598 -98.75390625 22.50390625 C-72.94877325 -0.95863311 -33.44250276 -10.04084829 0 0 Z " fill="#000000" transform="translate(383,51)"/>
</svg>
