<?xml version="1.0" encoding="UTF-8"?>
<svg version="1.1" xmlns="http://www.w3.org/2000/svg" width="512" height="512">
<path d="M0 0 C1.72791527 -0.00043808 1.72791527 -0.00043808 3.49073792 -0.00088501 C7.28369784 0.00050404 11.07645931 0.01604553 14.86938477 0.03173828 C17.50496819 0.03546991 20.140553 0.03831618 22.77613831 0.04031372 C28.994983 0.04651586 35.21375691 0.06290943 41.43257052 0.0830127 C48.51602218 0.10541123 55.59947733 0.11637505 62.68295562 0.12640357 C77.24643718 0.14727687 91.8098631 0.18242809 106.37329102 0.22705078 C106.37329102 0.55705078 106.37329102 0.88705078 106.37329102 1.22705078 C104.84961914 1.53835937 104.84961914 1.53835937 103.29516602 1.85595703 C90.94520917 4.55002761 79.39436748 8.90517059 71.37329102 19.22705078 C67.54405129 25.67427406 65.31716728 32.14353493 63.73266602 39.43408203 C63.52015198 40.36250412 63.30763794 41.29092621 63.08868408 42.2474823 C62.42145768 45.17558916 61.77215643 48.10732699 61.12329102 51.03955078 C60.67393913 53.02353986 60.22342765 55.00726667 59.77172852 56.99072266 C57.4643373 67.08577186 57.4643373 67.08577186 55.37329102 77.22705078 C58.67329102 77.55705078 61.97329102 77.88705078 65.37329102 78.22705078 C65.56121216 76.53213501 65.56121216 76.53213501 65.75292969 74.80297852 C66.33786707 70.14132111 67.27953283 65.59576451 68.29907227 61.01220703 C68.48793503 60.15702988 68.67679779 59.30185272 68.87138367 58.42076111 C69.27027686 56.62274303 69.67125395 54.82518612 70.07421875 53.02807617 C70.68283233 50.30279932 71.27727116 47.57467085 71.87133789 44.84619141 C72.2630466 43.08883593 72.65559728 41.33166788 73.04907227 39.57470703 C73.22215408 38.77130386 73.3952359 37.9679007 73.57356262 37.14015198 C76.67287448 23.55514272 83.51830684 13.72304847 95.37329102 6.22705078 C102.12198009 2.93770233 108.61169535 0.10898525 116.18197155 0.0928297 C117.15276942 0.08837186 118.1235673 0.08391402 119.12378329 0.07932109 C120.71962306 0.07959763 120.71962306 0.07959763 122.34770203 0.07987976 C123.47999719 0.07620307 124.61229235 0.07252638 125.77889949 0.06873828 C129.58730473 0.05769215 133.39568269 0.05385602 137.20410156 0.05004883 C139.92897272 0.04431698 142.65383978 0.03715102 145.37870789 0.03013611 C153.56550788 0.01038506 161.75230908 0.0003075 169.93912694 -0.00859168 C173.79573584 -0.01297655 177.65234337 -0.01834282 181.50895119 -0.02358055 C194.33116591 -0.04059099 207.15337978 -0.05508503 219.97560406 -0.06232929 C223.30209542 -0.06423914 226.62858678 -0.06615948 229.95507812 -0.06811523 C231.19523028 -0.06884084 231.19523028 -0.06884084 232.46043602 -0.06958111 C245.85278723 -0.077881 259.24504911 -0.10321802 272.63736131 -0.13569591 C286.39091413 -0.16877762 300.14442156 -0.18677903 313.89801437 -0.18997353 C321.61857095 -0.19213753 329.33899723 -0.2008701 337.059515 -0.22643471 C343.63473117 -0.24815687 350.20978538 -0.2561847 356.78503337 -0.24646793 C360.13819412 -0.24192753 363.49075029 -0.24598168 366.84391022 -0.26322937 C370.48420911 -0.28090557 374.12366245 -0.27386191 377.76396179 -0.26069641 C378.81670137 -0.27166566 379.86944094 -0.2826349 380.95408171 -0.29393655 C388.8889719 -0.22472949 394.94111463 1.48130967 401.18579102 6.47705078 C407.63799712 14.5883956 408.37971441 22.06022001 407.37329102 32.22705078 C406.12177525 40.34260084 404.13462219 48.32623368 402.26782227 56.31689453 C401.71760537 58.72694011 401.16887444 61.13732535 400.62150574 63.54801941 C399.44400134 68.71956752 398.25686229 73.88875109 397.06054688 79.05596924 C395.32592149 86.54852807 393.6081673 94.04487219 391.89532113 101.5424366 C391.09232822 105.05733853 390.28877656 108.57211264 389.4850769 112.08685303 C389.32390188 112.79173245 389.16272686 113.49661187 388.99666774 114.22285128 C387.8373443 119.29132321 386.67450406 124.35898128 385.51028442 129.42633057 C381.02425363 148.95686821 376.59546153 168.4996629 372.20740318 188.05243874 C371.2058591 192.51493995 370.20272937 196.97708364 369.19917297 201.43913269 C369.03563696 202.1663094 368.87210094 202.8934861 368.70360929 203.64269847 C368.048987 206.55348946 367.39433403 209.46427355 366.73961079 212.37504184 C364.98067044 220.19526335 363.22392917 228.01596364 361.47354126 235.83810425 C359.97790438 242.52138005 358.47350336 249.20263466 356.96352577 255.88268471 C356.41083709 258.33434409 355.86105025 260.78665977 355.31441307 263.23967552 C354.56565978 266.59808739 353.80665555 269.95402692 353.04516602 273.30957031 C352.72587238 274.75918356 352.72587238 274.75918356 352.40012836 276.23808193 C349.42703948 289.20238278 344.67642539 300.11128546 333.49047852 307.94580078 C326.84049715 311.97014375 320.53196276 314.34424107 312.74505615 314.36749268 C311.59837967 314.37320282 310.45170319 314.37891296 309.27027893 314.38479614 C307.38912636 314.38647293 307.38912636 314.38647293 305.4699707 314.38818359 C304.13262292 314.39281422 302.79527646 314.39783921 301.45793152 314.40322876 C297.82758221 314.41633225 294.19725139 314.42279385 290.56688213 314.42723942 C288.296704 314.43017379 286.02653089 314.43427932 283.75635529 314.43874359 C276.64752913 314.45241387 269.53871448 314.46208251 262.42987609 314.46594548 C254.23501011 314.47042355 246.04031115 314.48796165 237.84549594 314.51694608 C231.50393801 314.53859385 225.16242696 314.54865143 218.82083249 314.5499866 C215.0367269 314.55103253 211.25277841 314.55689472 207.46871185 314.57480621 C203.90638364 314.59134035 200.34432972 314.59341674 196.7819767 314.58466721 C194.86076989 314.58353532 192.93957197 314.59721185 191.01841736 314.61141968 C182.80011159 314.57189399 177.06126359 313.70934001 170.12329102 309.03955078 C163.89700943 302.67176279 162.40617122 296.00256715 162.37329102 287.22705078 C162.90687246 283.08839547 163.8158961 279.08926662 164.81079102 275.03955078 C165.17527344 273.46850586 165.17527344 273.46850586 165.54711914 271.86572266 C166.14098727 269.31558304 166.74979587 266.77007752 167.37329102 264.22705078 C164.40329102 264.22705078 161.43329102 264.22705078 158.37329102 264.22705078 C158.27016602 265.40267578 158.16704102 266.57830078 158.06079102 267.78955078 C157.59557019 272.18484608 156.69981637 276.4126002 155.74829102 280.72705078 C154.0650762 289.0270411 153.78088862 295.80116816 157.95141602 303.37158203 C162.54512219 309.36611619 169.17474709 311.91822461 176.37329102 313.22705078 C176.37329102 313.55705078 176.37329102 313.88705078 176.37329102 314.22705078 C158.25774723 314.29719917 140.14223879 314.35006749 122.02658844 314.3824873 C113.61476597 314.39794193 105.203028 314.41900455 96.79125977 314.45336914 C89.45771015 314.48331455 82.12422175 314.50263599 74.7906127 314.50931627 C70.90918491 314.51321984 67.02793222 314.52236433 63.14656067 314.54424095 C59.48909377 314.56468748 55.83187318 314.57086821 52.17435455 314.56637383 C50.20061594 314.56758548 48.22690381 314.58368473 46.25323486 314.60031128 C38.28567787 314.57267568 32.59016286 313.77678725 25.68579102 309.60205078 C19.81174709 303.56924891 17.85108224 298.15327766 17.82373047 289.70715332 C18.17376845 277.84382567 21.63621124 266.18727864 24.39959717 254.7053833 C25.19683169 251.37581721 25.97354416 248.04147033 26.75219727 244.70751953 C28.2740736 238.20955814 29.81573491 231.71654684 31.37329102 225.22705078 C28.07329102 225.22705078 24.77329102 225.22705078 21.37329102 225.22705078 C21.13964844 226.43151855 20.90600586 227.63598633 20.6652832 228.87695312 C18.91512452 237.81026663 17.07898893 246.71238296 15.01391602 255.57861328 C14.81761597 256.42566833 14.62131592 257.27272339 14.41906738 258.14544678 C13.61891866 261.59237354 12.81648642 265.03863619 11.9987793 268.48144531 C7.12270084 286.12658166 7.12270084 286.12658166 11.37329102 303.22705078 C16.57119154 309.57154701 22.48271487 311.70405355 30.37329102 313.22705078 C30.37329102 313.55705078 30.37329102 313.88705078 30.37329102 314.22705078 C15.25659076 314.29723637 0.13989804 314.35008566 -14.97692871 314.3824873 C-21.99647479 314.39793409 -29.01591943 314.41898152 -36.03540039 314.45336914 C-42.81107543 314.48654647 -49.58664507 314.50391038 -56.36239624 314.51168251 C-58.94592954 314.5172205 -61.52945715 314.52803481 -64.11294556 314.54424095 C-67.73484704 314.56605502 -71.35631475 314.56901595 -74.97827148 314.56762695 C-76.57618279 314.58380569 -76.57618279 314.58380569 -78.20637512 314.60031128 C-85.89804567 314.568446 -91.3808172 313.41178564 -97.87670898 309.03955078 C-103.91184846 302.86724904 -105.01455653 297.82878791 -105.01241875 289.19324207 C-104.7885534 279.37571826 -102.30446763 269.94227424 -100.07202148 260.42626953 C-99.58096244 258.2746981 -99.09148548 256.12276508 -98.60345459 253.97050476 C-97.28127777 248.1586736 -95.93829058 242.35183337 -94.59157562 236.54564667 C-93.17541181 230.42297626 -91.7789499 224.29581879 -90.38110352 218.16894531 C-88.62406408 210.47357316 -86.86512441 202.77865252 -85.09701538 195.08581543 C-80.97931379 177.16838009 -76.90635719 159.24129927 -72.86793566 141.30583119 C-72.27773218 138.68480942 -71.68722066 136.06385709 -71.09671414 133.44290358 C-69.79484864 127.6645326 -68.49339045 121.88606993 -67.19207764 116.10757446 C-66.62863255 113.60573073 -66.06517643 111.10388948 -65.50170898 108.60205078 C-65.2264463 107.37984707 -64.95118362 106.15764336 -64.66757965 104.89840317 C-61.21262144 89.56130029 -57.74679559 74.22677765 -54.23875427 58.90171814 C-53.84233816 57.16936064 -53.44647915 55.43687552 -53.05128479 53.70423889 C-51.92868331 48.78342053 -50.78846278 43.8671788 -49.63452148 38.95361328 C-49.37951874 37.83731537 -49.12451599 36.72101746 -48.86178589 35.57089233 C-46.11549629 24.06923466 -41.20998424 14.69135368 -30.90942383 8.13378906 C-20.55614175 2.22924862 -11.80102411 -0.07869995 0 0 Z M220.93188477 14.53955078 C213.16226406 22.9517717 210.53934906 32.79380752 208.11157227 43.71533203 C207.9160527 44.58095261 207.72053314 45.44657318 207.51908875 46.33842468 C207.11104376 48.15048158 206.70529106 49.96305608 206.30175781 51.77612305 C205.68323118 54.55103502 205.05511256 57.32365671 204.42602539 60.09619141 C204.02896924 61.86494336 203.63246513 63.63381934 203.23657227 65.40283203 C203.04911942 66.22890457 202.86166656 67.05497711 202.66853333 67.90608215 C202.41277779 69.06330025 202.41277779 69.06330025 202.15185547 70.24389648 C202.00102005 70.9184639 201.85018463 71.59303131 201.69477844 72.28804016 C201.2642465 74.55715876 201.2642465 74.55715876 201.37329102 78.22705078 C204.01329102 78.22705078 206.65329102 78.22705078 209.37329102 78.22705078 C211.51305191 72.19744185 213.15787535 66.21028906 214.45922852 59.94970703 C214.83633861 58.2015535 215.21395848 56.45350988 215.59204102 54.70556641 C216.1723925 51.99717777 216.74859353 49.28810446 217.31567383 46.5769043 C221.39685682 27.14899303 221.39685682 27.14899303 226.37329102 19.22705078 C226.93016602 18.34017578 227.48704102 17.45330078 228.06079102 16.53955078 C235.026658 9.5736838 243.23582139 5.63397674 252.37329102 2.22705078 C252.37329102 1.89705078 252.37329102 1.56705078 252.37329102 1.22705078 C240.96390185 0.86420802 229.20412047 6.92195244 220.93188477 14.53955078 Z M-34.62670898 81.22705078 C-36.06800444 87.82136083 -37.49142574 94.41919788 -38.89916992 101.02075195 C-39.3794268 103.26103746 -39.86435946 105.50032634 -40.35424805 107.73852539 C-45.7137014 127.10770992 -45.7137014 127.10770992 -43.00170898 146.28955078 C-38.89666068 151.36684736 -34.09511457 154.26790203 -27.62670898 155.22705078 C-17.39426035 156.14338946 -7.37903515 155.1730535 1.27172852 149.23876953 C9.44934835 142.29618612 12.57880308 134.97912101 14.66235352 124.64501953 C14.85171478 123.75019363 15.04107605 122.85536774 15.23617554 121.9334259 C15.83389298 119.09585189 16.41615647 116.25535769 16.99829102 113.41455078 C17.39574919 111.52046481 17.79417873 109.62658239 18.19360352 107.73291016 C20.04375402 98.9187978 21.82931493 90.10076279 23.37329102 81.22705078 C18.75329102 81.22705078 14.13329102 81.22705078 9.37329102 81.22705078 C8.15377748 84.88559138 7.11310289 88.03214664 6.38354492 91.72851562 C6.21641998 92.56313324 6.04929504 93.39775085 5.87710571 94.25765991 C5.70311249 95.14216827 5.52911926 96.02667664 5.34985352 96.93798828 C4.96488687 98.84172517 4.57945573 100.74536818 4.19360352 102.64892578 C3.59416698 105.62550589 2.99817538 108.60263682 2.41040039 111.58154297 C1.83797204 114.4733591 1.25120443 117.36197773 0.66235352 120.25048828 C0.49240875 121.13094818 0.32246399 122.01140808 0.14736938 122.91854858 C-1.17590929 129.33484801 -2.7627547 136.00748621 -8.12670898 140.16455078 C-13.83799536 142.59184749 -19.44864753 142.987022 -25.50170898 141.53955078 C-27.62670898 140.22705078 -27.62670898 140.22705078 -29.00170898 138.22705078 C-30.59543781 130.57715243 -28.14438684 122.15191622 -26.56030273 114.62548828 C-26.36195328 113.66301178 -26.16360382 112.70053528 -25.95924377 111.70889282 C-25.3323224 108.67227089 -24.69839358 105.63716319 -24.06420898 102.60205078 C-23.63470594 100.52792859 -23.20566515 98.45371063 -22.77709961 96.37939453 C-21.73230566 91.3274912 -20.68122998 86.27693228 -19.62670898 81.22705078 C-24.57670898 81.22705078 -29.52670898 81.22705078 -34.62670898 81.22705078 Z M206.37329102 84.22705078 C203.06389219 96.75899986 200.37953722 109.3949354 197.79907227 122.09448242 C197.11649842 125.44792237 196.42484631 128.79941018 195.73266602 132.15087891 C195.29462151 134.29464793 194.85710195 136.43852429 194.42016602 138.58251953 C194.21397644 139.57833542 194.00778687 140.57415131 193.79534912 141.60014343 C193.60805237 142.52913956 193.42075562 143.45813568 193.2277832 144.4152832 C193.0621991 145.2264006 192.89661499 146.03751801 192.72601318 146.87321472 C192.24979493 149.65449637 192.24979493 149.65449637 192.37329102 154.22705078 C196.66329102 154.22705078 200.95329102 154.22705078 205.37329102 154.22705078 C206.21192564 150.64488287 207.04439351 147.06147243 207.87329102 143.47705078 C208.11176758 142.46126953 208.35024414 141.44548828 208.59594727 140.39892578 C208.8215332 139.41923828 209.04711914 138.43955078 209.27954102 137.43017578 C209.59375 136.07907715 209.59375 136.07907715 209.91430664 134.70068359 C210.49491551 131.99088154 210.49491551 131.99088154 210.37329102 128.22705078 C210.98213135 128.24799805 211.59097168 128.26894531 212.21826172 128.29052734 C231.08886264 129.35013225 231.08886264 129.35013225 247.31079102 120.97705078 C253.74666011 113.80036222 255.70124394 106.3029507 255.58813477 96.85205078 C255.20065523 92.11775539 253.30038644 90.06143666 249.87329102 86.97705078 C245.32897218 83.79602759 241.10250175 84.09564053 235.76782227 84.12939453 C234.9286174 84.13080948 234.08941254 84.13222443 233.22477722 84.13368225 C230.54507886 84.13927863 227.86546412 84.15183043 225.18579102 84.16455078 C223.36873493 84.16956625 221.55167754 84.17412908 219.73461914 84.17822266 C215.28081089 84.18924687 210.82706513 84.206509 206.37329102 84.22705078 Z M82.37329102 95.22705078 C81.71329102 98.52705078 81.05329102 101.82705078 80.37329102 105.22705078 C84.00329102 105.22705078 87.63329102 105.22705078 91.37329102 105.22705078 C92.03329102 101.92705078 92.69329102 98.62705078 93.37329102 95.22705078 C89.74329102 95.22705078 86.11329102 95.22705078 82.37329102 95.22705078 Z M38.37329102 116.22705078 C38.04329102 114.57705078 37.71329102 112.92705078 37.37329102 111.22705078 C34.40329102 111.22705078 31.43329102 111.22705078 28.37329102 111.22705078 C25.89756209 120.5701785 23.98301888 129.98671677 22.18579102 139.47705078 C21.91070982 140.91591206 21.63532098 142.35471455 21.35961914 143.79345703 C20.69397373 147.27065347 20.03245324 150.74861877 19.37329102 154.22705078 C22.67329102 154.22705078 25.97329102 154.22705078 29.37329102 154.22705078 C30.78825539 150.46027346 31.7181942 146.72400079 32.48657227 142.78564453 C32.6831543 141.78984375 32.87973633 140.79404297 33.08227539 139.76806641 C33.48493087 137.69745298 33.87554999 135.62446294 34.25415039 133.54931641 C35.42513281 127.73958693 36.32357375 123.86593101 41.37329102 120.22705078 C44.99829102 119.28955078 44.99829102 119.28955078 48.37329102 119.22705078 C49.36329102 119.88705078 50.35329102 120.54705078 51.37329102 121.22705078 C51.93766713 127.52689916 50.72748255 133.27951412 49.37329102 139.41455078 C48.99376002 141.15705965 48.61861465 142.90053069 48.24829102 144.64501953 C48.08071289 145.40580811 47.91313477 146.16659668 47.74047852 146.95043945 C47.24060009 149.66541342 47.24060009 149.66541342 47.37329102 154.22705078 C50.67329102 154.22705078 53.97329102 154.22705078 57.37329102 154.22705078 C58.23661744 150.08453811 59.09076648 145.94026626 59.93676758 141.79418945 C60.22531836 140.38645541 60.51629244 138.97921568 60.80981445 137.57250977 C61.23332503 135.54066734 61.64784613 133.50715729 62.06079102 131.47314453 C62.4378418 129.6428772 62.4378418 129.6428772 62.82250977 127.77563477 C63.5607682 123.01916916 64.10574254 118.87506671 62.12329102 114.41455078 C59.77176263 111.47514029 57.73447485 110.42022208 54.00610352 109.89111328 C47.07710156 109.7831849 43.3690331 111.2313087 38.37329102 116.22705078 Z M104.52563477 117.09423828 C98.6804393 124.47613133 95.57006575 132.74899269 96.37329102 142.22705078 C97.792752 146.55843458 99.65353223 149.55870334 102.99829102 152.66455078 C110.07177407 155.93931145 116.73710539 155.85057256 124.05297852 153.29345703 C131.28199133 149.97103195 135.22380448 144.38497473 138.37329102 137.22705078 C140.23671276 131.52996518 140.66864079 123.79765223 138.61938477 118.14892578 C136.03355104 114.13327811 132.83759011 111.71515048 128.37329102 110.22705078 C119.2082688 109.2505644 111.23205868 110.31692194 104.52563477 117.09423828 Z M162.37329102 116.22705078 C162.37329102 114.57705078 162.37329102 112.92705078 162.37329102 111.22705078 C159.07329102 111.22705078 155.77329102 111.22705078 152.37329102 111.22705078 C151.22891485 116.70696909 150.08972692 122.18793065 148.95532227 127.66992188 C148.56872498 129.53447541 148.18071444 131.39873651 147.79125977 133.26269531 C147.23154374 135.94276413 146.67692732 138.62384533 146.12329102 141.30517578 C145.94830078 142.13760803 145.77331055 142.97004028 145.59301758 143.82769775 C145.43285156 144.60820496 145.27268555 145.38871216 145.10766602 146.19287109 C144.96554688 146.87681946 144.82342773 147.56076782 144.67700195 148.26544189 C144.27128805 150.55503761 144.27128805 150.55503761 144.37329102 154.22705078 C147.67329102 154.22705078 150.97329102 154.22705078 154.37329102 154.22705078 C154.53933838 153.40503174 154.70538574 152.5830127 154.87646484 151.73608398 C155.50076424 148.66872328 156.13353072 145.60326404 156.77197266 142.53881836 C157.18009065 140.5670908 157.57851895 138.59336566 157.97680664 136.61962891 C158.2378418 135.37246094 158.49887695 134.12529297 158.76782227 132.84033203 C159.003479 131.69346924 159.23913574 130.54660645 159.48193359 129.36499023 C160.65134221 125.24819786 161.90355511 122.12522272 165.62329102 119.85205078 C169.11239437 119.05907275 171.88807978 119.54367603 175.37329102 120.22705078 C176.19570346 130.18737929 173.89116058 139.57184392 171.74047852 149.22509766 C171.2830884 151.37962224 171.2830884 151.37962224 171.37329102 154.22705078 C174.67329102 154.22705078 177.97329102 154.22705078 181.37329102 154.22705078 C182.2415102 150.42551307 183.0953089 146.6210294 183.93676758 142.81347656 C184.36402135 140.89370208 184.80213207 138.97635411 185.24047852 137.05908203 C188.39558114 124.82837547 188.39558114 124.82837547 185.49829102 113.16455078 C181.7812258 109.77546191 178.86110113 109.89881048 173.98657227 109.93408203 C169.15629305 110.47559315 165.79412832 112.80621347 162.37329102 116.22705078 Z M78.37329102 111.22705078 C77.24882459 116.22506144 76.1279322 121.22385563 75.01025391 126.22338867 C74.63003568 127.92184755 74.24886478 129.62009346 73.86669922 131.31811523 C73.31556819 133.76766632 72.76793894 136.21797873 72.22094727 138.66845703 C71.96620384 139.79544762 71.96620384 139.79544762 71.70631409 140.94520569 C70.72508238 145.35959098 69.95492277 149.74202371 69.37329102 154.22705078 C73.00329102 154.22705078 76.63329102 154.22705078 80.37329102 154.22705078 C81.49775745 149.22904012 82.61864983 144.23024593 83.73632812 139.23071289 C84.11654635 137.53225401 84.49771725 135.8340081 84.87988281 134.13598633 C85.43101384 131.68643524 85.97864309 129.23612284 86.52563477 126.78564453 C86.69546371 126.03431747 86.86529266 125.28299042 87.04026794 124.50889587 C88.02149965 120.09451058 88.79165926 115.71207785 89.37329102 111.22705078 C85.74329102 111.22705078 82.11329102 111.22705078 78.37329102 111.22705078 Z M307.37329102 111.22705078 C307.27241703 118.91238782 307.64826414 126.39280224 308.37329102 134.03955078 C308.6360559 137.17495555 308.88997863 140.31096865 309.1418457 143.44726562 C309.28116299 145.12054264 309.42988655 146.79312968 309.59692383 148.46386719 C310.6374385 159.05844095 307.5811634 165.91481488 301.37329102 174.22705078 C298.36669989 177.44316046 295.32727771 180.25005743 291.37329102 182.22705078 C290.96599874 184.54861675 290.62890425 186.88392948 290.37329102 189.22705078 C300.08399644 187.9138593 306.10985926 185.46127054 312.44555664 177.79956055 C320.28158747 167.34258779 325.64154625 154.86002605 331.30200195 143.14819336 C332.63068685 140.39924939 333.96622639 137.6537202 335.30297852 134.90869141 C336.16535304 133.13349279 337.02734581 131.35810865 337.88891602 129.58251953 C338.28065002 128.77606491 338.67238403 127.96961029 339.07598877 127.13871765 C341.61605154 121.87942905 344.02447329 116.57457916 346.37329102 111.22705078 C342.41329102 111.22705078 338.45329102 111.22705078 334.37329102 111.22705078 C330.41329102 120.46705078 326.45329102 129.70705078 322.37329102 139.22705078 C321.93579102 129.16455078 321.93579102 129.16455078 321.80517578 126.03540039 C321.57706889 121.03585684 321.18842683 116.16581486 320.37329102 111.22705078 C316.08329102 111.22705078 311.79329102 111.22705078 307.37329102 111.22705078 Z M256.56469727 119.10986328 C251.41432294 126.27671833 248.3509382 135.36665974 249.37329102 144.22705078 C250.5992731 148.09857316 251.53195371 150.50256588 254.62329102 153.16455078 C260.41338617 155.401633 265.75289748 154.07098334 271.55297852 152.56689453 C272.15368164 152.45474609 272.75438477 152.34259766 273.37329102 152.22705078 C273.86829102 152.72205078 273.86829102 152.72205078 274.37329102 153.22705078 C276.72316364 153.46232851 279.0788514 153.64091495 281.43579102 153.78955078 C282.72614258 153.87333984 284.01649414 153.95712891 285.34594727 154.04345703 C286.84448242 154.13433594 286.84448242 154.13433594 288.37329102 154.22705078 C289.65781729 148.71011671 290.93949418 143.19253156 292.21850586 137.67431641 C292.65424101 135.79620366 293.09076167 133.91827297 293.52807617 132.04052734 C294.15562002 129.34536169 294.78035912 126.64955924 295.40454102 123.95361328 C295.60140503 123.11085846 295.79826904 122.26810364 296.00109863 121.39981079 C297.00290818 117.35607575 297.00290818 117.35607575 297.37329102 113.22705078 C291.15626515 113.54280166 286.70381506 113.83489912 281.37329102 117.22705078 C279.37329102 116.53955078 279.37329102 116.53955078 277.37329102 115.22705078 C269.85478883 111.75697285 262.43161214 113.00218948 256.56469727 119.10986328 Z M117.28344727 177.19580078 C115.77431495 179.62013681 115.77431495 179.62013681 114.68188477 182.16064453 C113.37329102 184.22705078 113.37329102 184.22705078 110.72094727 185.01220703 C109.55885742 185.11855469 109.55885742 185.11855469 108.37329102 185.22705078 C107.71329102 187.86705078 107.05329102 190.50705078 106.37329102 193.22705078 C108.268398 193.30865826 110.16453605 193.36651537 112.06079102 193.41455078 C113.6444043 193.46675781 113.6444043 193.46675781 115.26000977 193.52001953 C119.03612329 193.16467635 121.67380044 191.92654136 124.37329102 189.22705078 C126.00585859 189.06990424 127.6446444 188.97619665 129.28344727 188.91064453 C130.76748047 188.84780273 130.76748047 188.84780273 132.28149414 188.78369141 C133.84287109 188.7247168 133.84287109 188.7247168 135.43579102 188.66455078 C136.48057617 188.62136719 137.52536133 188.57818359 138.60180664 188.53369141 C141.19215986 188.42723853 143.78261287 188.32522318 146.37329102 188.22705078 C147.03329102 185.58705078 147.69329102 182.94705078 148.37329102 180.22705078 C142.76329102 179.89705078 137.15329102 179.56705078 131.37329102 179.22705078 C132.03329102 177.90705078 132.69329102 176.58705078 133.37329102 175.22705078 C124.73246251 173.89614994 124.73246251 173.89614994 117.28344727 177.19580078 Z M154.37329102 175.22705078 C152.16944486 183.1886932 149.96929338 191.15132883 147.77552891 199.11575413 C146.75660393 202.81437644 145.73610141 206.51254791 144.71191406 210.2097168 C143.7225757 213.78131631 142.73748541 217.35406308 141.75526237 220.92762566 C141.38081149 222.28710088 141.00486199 223.6461643 140.62735176 225.00479317 C140.09665736 226.915736 139.57190417 228.82832571 139.04736328 230.7409668 C138.74758072 231.82684586 138.44779816 232.91272491 138.13893127 234.0315094 C137.32789945 237.41650087 136.81420539 240.7759527 136.37329102 244.22705078 C139.42010163 246.25825785 139.97447425 246.47364953 143.38500977 246.42236328 C144.14233398 246.41591797 144.8996582 246.40947266 145.67993164 246.40283203 C146.46561523 246.38607422 147.25129883 246.36931641 148.06079102 246.35205078 C148.85807617 246.34302734 149.65536133 246.33400391 150.47680664 246.32470703 C152.44243002 246.30116663 154.40789877 246.26529625 156.37329102 246.22705078 C156.70329102 243.91705078 157.03329102 241.60705078 157.37329102 239.22705078 C155.39329102 238.89705078 153.41329102 238.56705078 151.37329102 238.22705078 C151.55504883 237.54078613 151.73680664 236.85452148 151.92407227 236.14746094 C152.74301441 233.04965478 153.55819826 229.9508719 154.37329102 226.85205078 C154.65946289 225.77181641 154.94563477 224.69158203 155.24047852 223.57861328 C155.6465332 222.03173828 155.6465332 222.03173828 156.06079102 220.45361328 C156.3121582 219.5005127 156.56352539 218.54741211 156.82250977 217.56542969 C157.44971298 215.30299097 157.44971298 215.30299097 157.37329102 213.22705078 C158.31648193 213.24276123 159.25967285 213.25847168 160.23144531 213.2746582 C163.74452249 213.32591085 167.25719999 213.36346069 170.77050781 213.3918457 C172.2884754 213.40689431 173.80639978 213.42733816 175.32421875 213.45336914 C177.51125779 213.48992732 179.69771998 213.50681601 181.88500977 213.52001953 C183.85667114 213.54358521 183.85667114 213.54358521 185.86816406 213.56762695 C189.71061141 213.194275 191.48423799 212.77949944 194.37329102 210.22705078 C195.44199158 207.75007655 196.17605904 205.62155145 196.83032227 203.03955078 C197.02301193 202.34063721 197.2157016 201.64172363 197.41423035 200.92163086 C198.02297424 198.69457895 198.60412352 196.46130855 199.18579102 194.22705078 C199.59490839 192.72398562 200.00569812 191.22137458 200.41821289 189.71923828 C202.54344177 182.57130574 202.54344177 182.57130574 203.37329102 175.22705078 C198.87351217 175.11015005 194.37412814 175.03956241 189.87329102 174.97705078 C188.60485352 174.94353516 187.33641602 174.91001953 186.02954102 174.87548828 C178.63110454 174.79842123 173.65213985 175.19970835 167.37329102 179.22705078 C167.04329102 177.90705078 166.71329102 176.58705078 166.37329102 175.22705078 C162.41329102 175.22705078 158.45329102 175.22705078 154.37329102 175.22705078 Z M221.37329102 175.22705078 C220.71329102 178.19705078 220.05329102 181.16705078 219.37329102 184.22705078 C220.03329102 184.22705078 220.69329102 184.22705078 221.37329102 184.22705078 C221.12899353 185.08149529 221.12899353 185.08149529 220.87976074 185.95320129 C219.18814135 191.87265202 217.50201347 197.79364692 215.8190918 203.71557617 C215.18997163 205.92659089 214.55944389 208.13720559 213.92749023 210.34741211 C213.02031599 213.52109783 212.11818391 216.69617927 211.21704102 219.87158203 C210.79050232 221.35764702 210.79050232 221.35764702 210.35534668 222.87373352 C210.0950769 223.79446152 209.83480713 224.71518951 209.56665039 225.66381836 C209.33570679 226.47434158 209.10476318 227.28486481 208.86682129 228.11994934 C208.25926579 230.35318749 208.25926579 230.35318749 208.37329102 233.22705078 C206.39329102 233.72205078 206.39329102 233.72205078 204.37329102 234.22705078 C203.71329102 236.86705078 203.05329102 239.50705078 202.37329102 242.22705078 C211.61329102 242.22705078 220.85329102 242.22705078 230.37329102 242.22705078 C230.04329102 243.54705078 229.71329102 244.86705078 229.37329102 246.22705078 C233.66329102 246.22705078 237.95329102 246.22705078 242.37329102 246.22705078 C242.86829102 244.24705078 242.86829102 244.24705078 243.37329102 242.22705078 C245.35329102 241.73205078 245.35329102 241.73205078 247.37329102 241.22705078 C248.03329102 238.58705078 248.69329102 235.94705078 249.37329102 233.22705078 C248.38329102 233.22705078 247.39329102 233.22705078 246.37329102 233.22705078 C246.63638062 232.37832397 246.63638062 232.37832397 246.90478516 231.51245117 C247.75187062 228.77252622 248.59431543 226.0312039 249.43579102 223.28955078 C249.74871094 222.27296387 250.06163086 221.25637695 250.3840332 220.20898438 C252.11002837 214.55078942 253.75798421 208.88210055 255.29125977 203.16845703 C255.59862061 202.02948975 255.90598145 200.89052246 256.22265625 199.71704102 C256.81760818 197.4941561 257.40196979 195.2684065 257.97509766 193.03979492 C258.24572021 192.03166748 258.51634277 191.02354004 258.79516602 189.98486328 C259.02816406 189.08912598 259.26116211 188.19338867 259.5012207 187.27050781 C259.78900391 186.59616699 260.07678711 185.92182617 260.37329102 185.22705078 C261.36329102 184.89705078 262.35329102 184.56705078 263.37329102 184.22705078 C264.1789274 182.1212064 264.1789274 182.1212064 264.56079102 179.66455078 C264.7193457 178.83826172 264.87790039 178.01197266 265.04125977 177.16064453 C265.15083008 176.52255859 265.26040039 175.88447266 265.37329102 175.22705078 C249.41629362 174.46823256 249.41629362 174.46823256 234.37329102 179.22705078 C234.70329102 177.90705078 235.03329102 176.58705078 235.37329102 175.22705078 C230.75329102 175.22705078 226.13329102 175.22705078 221.37329102 175.22705078 Z M267.37329102 175.22705078 C267.35266602 176.81517578 267.33204102 178.40330078 267.31079102 180.03955078 C267.29918945 180.93287109 267.28758789 181.82619141 267.27563477 182.74658203 C267.26319135 185.36118869 267.26319135 185.36118869 268.37329102 188.22705078 C271.25744984 189.66913019 273.7905063 189.32099965 276.99829102 189.28955078 C278.78106445 189.27601563 278.78106445 189.27601563 280.59985352 189.26220703 C281.97270508 189.24480469 281.97270508 189.24480469 283.37329102 189.22705078 C284.03329102 186.58705078 284.69329102 183.94705078 285.37329102 181.22705078 C284.05329102 180.89705078 282.73329102 180.56705078 281.37329102 180.22705078 C281.04329102 178.57705078 280.71329102 176.92705078 280.37329102 175.22705078 C276.08329102 175.22705078 271.79329102 175.22705078 267.37329102 175.22705078 Z M263.37329102 193.22705078 C261.18759568 197.79376166 261.18759568 197.79376166 261.37329102 201.22705078 C266.32329102 201.22705078 271.27329102 201.22705078 276.37329102 201.22705078 C275.38329102 204.19705078 274.39329102 207.16705078 273.37329102 210.22705078 C268.42329102 210.55705078 263.47329102 210.88705078 258.37329102 211.22705078 C256.18759568 215.79376166 256.18759568 215.79376166 256.37329102 219.22705078 C260.66329102 219.22705078 264.95329102 219.22705078 269.37329102 219.22705078 C267.93768259 221.47827742 266.4998824 223.72805216 265.06079102 225.97705078 C264.65666992 226.61126953 264.25254883 227.24548828 263.83618164 227.89892578 C262.69340202 229.68277689 261.53628156 231.45633111 260.37329102 233.22705078 C259.85766602 234.02111328 259.34204102 234.81517578 258.81079102 235.63330078 C256.4798163 238.21764231 253.69907892 237.97604792 250.37329102 238.22705078 C249.71329102 240.86705078 249.05329102 243.50705078 248.37329102 246.22705078 C257.83037909 247.30596452 257.83037909 247.30596452 266.63110352 244.87939453 C268.15027398 243.06991139 269.269784 241.31330366 270.37329102 239.22705078 C271.13528287 238.07531884 271.90538653 236.92888695 272.68579102 235.78955078 C273.24266602 234.94392578 273.79954102 234.09830078 274.37329102 233.22705078 C274.70329102 233.22705078 275.03329102 233.22705078 275.37329102 233.22705078 C275.47125977 233.91412109 275.56922852 234.60119141 275.67016602 235.30908203 C275.81969727 236.21013672 275.96922852 237.11119141 276.12329102 238.03955078 C276.26250977 238.93287109 276.40172852 239.82619141 276.54516602 240.74658203 C277.58117686 243.84972771 278.48477551 244.72343997 281.37329102 246.22705078 C284.19158985 246.58805612 284.19158985 246.58805612 287.12329102 246.41455078 C288.10813477 246.38748047 289.09297852 246.36041016 290.10766602 246.33251953 C291.22915039 246.2803125 291.22915039 246.2803125 292.37329102 246.22705078 C293.03329102 243.58705078 293.69329102 240.94705078 294.37329102 238.22705078 C293.05329102 237.89705078 291.73329102 237.56705078 290.37329102 237.22705078 C289.38329102 233.26705078 288.39329102 229.30705078 287.37329102 225.22705078 C285.06329102 225.22705078 282.75329102 225.22705078 280.37329102 225.22705078 C281.36157227 222.77783203 281.36157227 222.77783203 283.37329102 220.22705078 C286.28405935 219.68446678 288.64702764 219.43745372 291.56079102 219.41455078 C292.31038086 219.38941406 293.0599707 219.36427734 293.83227539 219.33837891 C295.67871723 219.27957503 297.52606104 219.25043344 299.37329102 219.22705078 C300.62994079 216.32104817 301.37329102 214.43100494 301.37329102 211.22705078 C297.08329102 210.89705078 292.79329102 210.56705078 288.37329102 210.22705078 C289.03329102 207.25705078 289.69329102 204.28705078 290.37329102 201.22705078 C294.99329102 201.22705078 299.61329102 201.22705078 304.37329102 201.22705078 C306.55898635 196.6603399 306.55898635 196.6603399 306.37329102 193.22705078 C292.18329102 193.22705078 277.99329102 193.22705078 263.37329102 193.22705078 Z M106.37329102 197.22705078 C104.18759568 201.79376166 104.18759568 201.79376166 104.37329102 205.22705078 C107.34329102 205.22705078 110.31329102 205.22705078 113.37329102 205.22705078 C113.04329102 205.96955078 112.71329102 206.71205078 112.37329102 207.47705078 C111.14546231 210.3658839 111.14546231 210.3658839 111.37329102 214.22705078 C108.07329102 214.22705078 104.77329102 214.22705078 101.37329102 214.22705078 C100.11664124 217.13305339 99.37329102 219.02309663 99.37329102 222.22705078 C102.34329102 222.22705078 105.31329102 222.22705078 108.37329102 222.22705078 C108.00075195 223.46841797 107.62821289 224.70978516 107.24438477 225.98876953 C106.76593036 227.63052484 106.28809835 229.27246162 105.81079102 230.91455078 C105.56393555 231.73117187 105.31708008 232.54779297 105.06274414 233.38916016 C103.33275297 239.27004661 103.33275297 239.27004661 104.37329102 245.22705078 C105.43279154 246.51131975 105.43279154 246.51131975 107.87353516 246.34057617 C109.49956665 246.33272095 109.49956665 246.33272095 111.15844727 246.32470703 C112.32827148 246.32148438 113.4980957 246.31826172 114.70336914 246.31494141 C116.55091797 246.30237305 116.55091797 246.30237305 118.43579102 246.28955078 C119.67135742 246.28503906 120.90692383 246.28052734 122.17993164 246.27587891 C125.24443218 246.26404686 128.30883823 246.24756251 131.37329102 246.22705078 C131.70329102 243.91705078 132.03329102 241.60705078 132.37329102 239.22705078 C125.44329102 238.73205078 125.44329102 238.73205078 118.37329102 238.22705078 C119.0151702 233.09201734 120.05601349 228.23270538 121.37329102 223.22705078 C126.32329102 222.89705078 131.27329102 222.56705078 136.37329102 222.22705078 C137.03329102 219.58705078 137.69329102 216.94705078 138.37329102 214.22705078 C133.42329102 214.22705078 128.47329102 214.22705078 123.37329102 214.22705078 C124.03329102 212.57705078 124.69329102 210.92705078 125.37329102 209.22705078 C125.37329102 207.90705078 125.37329102 206.58705078 125.37329102 205.22705078 C130.65329102 205.22705078 135.93329102 205.22705078 141.37329102 205.22705078 C142.03329102 202.58705078 142.69329102 199.94705078 143.37329102 197.22705078 C131.16329102 197.22705078 118.95329102 197.22705078 106.37329102 197.22705078 Z M165.37329102 216.22705078 C165.1248943 220.47672953 164.89881308 224.72557887 164.68579102 228.97705078 C164.61295898 230.18361328 164.54012695 231.39017578 164.46508789 232.63330078 C164.41030273 233.79345703 164.35551758 234.95361328 164.29907227 236.14892578 C164.24146729 237.21723633 164.1838623 238.28554688 164.12451172 239.38623047 C164.4124585 242.67430582 164.97009882 243.98122633 167.37329102 246.22705078 C169.3894327 246.77369624 169.3894327 246.77369624 171.60375977 246.61767578 C172.40620117 246.60478516 173.20864258 246.59189453 174.03540039 246.57861328 C174.8687793 246.54509766 175.7021582 246.51158203 176.56079102 246.47705078 C177.82826172 246.44998047 177.82826172 246.44998047 179.12133789 246.42236328 C181.20580674 246.37525664 183.28969246 246.30351311 185.37329102 246.22705078 C185.70329102 244.24705078 186.03329102 242.26705078 186.37329102 240.22705078 C185.07391602 240.08267578 183.77454102 239.93830078 182.43579102 239.78955078 C178.49829102 239.35205078 178.49829102 239.35205078 177.37329102 238.22705078 C177.13965221 236.37813132 176.96025467 234.52217047 176.81079102 232.66455078 C176.72700195 231.65263672 176.64321289 230.64072266 176.55688477 229.59814453 C176.49629883 228.81568359 176.43571289 228.03322266 176.37329102 227.22705078 C177.47737305 227.29666016 177.47737305 227.29666016 178.60375977 227.36767578 C184.77711657 227.63246414 184.77711657 227.63246414 190.49829102 225.60205078 C192.72581278 222.78052322 193.1311315 220.77872371 193.37329102 217.22705078 C190.40329102 217.22705078 187.43329102 217.22705078 184.37329102 217.22705078 C183.71329102 218.54705078 183.05329102 219.86705078 182.37329102 221.22705078 C179.74829102 221.97705078 179.74829102 221.97705078 177.37329102 222.22705078 C177.37329102 220.24705078 177.37329102 218.26705078 177.37329102 216.22705078 C173.41329102 216.22705078 169.45329102 216.22705078 165.37329102 216.22705078 Z " fill="#000000" transform="translate(104.626708984375,98.77294921875)"/>
<path d="M0 0 C3.08325358 -0.0582253 6.16636505 -0.09367134 9.25 -0.125 C10.55904297 -0.15013672 10.55904297 -0.15013672 11.89453125 -0.17578125 C12.73886719 -0.18222656 13.58320313 -0.18867188 14.453125 -0.1953125 C15.22817383 -0.20578613 16.00322266 -0.21625977 16.80175781 -0.22705078 C19.29907849 0.03089105 20.87839667 0.67239594 23 2 C24.59984287 5.19968574 24.3629489 8.51957927 24 12 C22.43624654 16.14394666 20.90409475 18.81829999 17 21 C12.59106419 22.1898422 8.21787097 22.11513166 3.6875 22.0625 C2.94693359 22.05798828 2.20636719 22.05347656 1.44335938 22.04882812 C-0.37112899 22.03712175 -2.18557534 22.01918898 -4 22 C-3.3622098 14.47407567 -1.80110167 7.32901118 0 0 Z " fill="#000000" transform="translate(322,194)"/>
<path d="M0 0 C1.99301736 1.58066894 2.86543351 2.73086702 4 5 C4.59950187 11.71442096 3.35980478 17.11254023 0 23 C-3.27753623 26.05903381 -5.14175322 26.87954431 -9.5625 27.5 C-13.81232953 26.88184298 -15.36319948 26.43583099 -18 23 C-19.34402902 15.76110684 -17.89620238 9.1912257 -14 3 C-9.75913234 -1.24086766 -5.67781294 -1.44965437 0 0 Z " fill="#000000" transform="translate(230,218)"/>
<path d="M0 0 C2.29088737 1.75634699 2.8667001 3.16235003 3.31640625 5.98828125 C3.62827453 11.81317589 2.31198114 16.21003378 -1 21 C-3.375 23.5625 -3.375 23.5625 -6 25 C-9.1875 25 -9.1875 25 -12 24 C-14.65714359 19.85665745 -14.64061321 15.76553732 -14 11 C-12.69219529 7.10355091 -10.93486039 3.99718442 -8.125 1 C-5.18946023 -0.38143048 -3.20061317 -0.47668707 0 0 Z " fill="#000000" transform="translate(381,221)"/>
<path d="M0 0 C7.59 0 15.18 0 23 0 C22.34 2.64 21.68 5.28 21 8 C19.75863281 8.06058594 18.51726562 8.12117188 17.23828125 8.18359375 C15.59634423 8.26803623 13.95441768 8.35268236 12.3125 8.4375 C11.49587891 8.47681641 10.67925781 8.51613281 9.83789062 8.55664062 C5.80344189 8.76898003 1.94252691 9.04447922 -2 10 C-1.54177532 6.53058454 -1.10868317 3.32604951 0 0 Z " fill="#000000" transform="translate(270,282)"/>
<path d="M0 0 C7.59 0 15.18 0 23 0 C22.34 2.31 21.68 4.62 21 7 C13.41 7 5.82 7 -2 7 C-1.34 4.69 -0.68 2.38 0 0 Z " fill="#000000" transform="translate(266,297)"/>
<path d="M0 0 C3.96 0 7.92 0 12 0 C11.68554487 2.33595238 11.3496418 4.66905466 11 7 C10.92394531 7.70125 10.84789062 8.4025 10.76953125 9.125 C10 11 10 11 7.8203125 12.046875 C6.93085938 12.27890625 6.04140625 12.5109375 5.125 12.75 C4.24070312 12.99234375 3.35640625 13.2346875 2.4453125 13.484375 C0 14 0 14 -3 14 C-2.40380045 9.13103697 -1.43023178 4.67209049 0 0 Z " fill="#000000" transform="translate(338,283)"/>
<path d="M0 0 C1.65322266 0.01740234 1.65322266 0.01740234 3.33984375 0.03515625 C4.99693359 0.04869141 4.99693359 0.04869141 6.6875 0.0625 C7.54214844 0.07410156 8.39679688 0.08570313 9.27734375 0.09765625 C7.65446038 9.10803997 7.65446038 9.10803997 4.47265625 11.39453125 C2.39974451 12.16111748 0.44857758 12.68806452 -1.72265625 13.09765625 C-2.63273437 13.28199219 -3.5428125 13.46632813 -4.48046875 13.65625 C-5.59035156 13.87474609 -5.59035156 13.87474609 -6.72265625 14.09765625 C-6.2479085 11.95084094 -5.76773876 9.80522397 -5.28515625 7.66015625 C-5.01832031 6.46519531 -4.75148438 5.27023437 -4.4765625 4.0390625 C-3.47324854 0.1245785 -3.47324854 0.1245785 0 0 Z " fill="#000000" transform="translate(335.72265625,302.90234375)"/>
<path d="M0 0 C3.96 0 7.92 0 12 0 C11.34 3.3 10.68 6.6 10 10 C6.04 10 2.08 10 -2 10 C-1.34 6.7 -0.68 3.4 0 0 Z " fill="#000000" transform="translate(327,322)"/>
</svg>
