<?xml version="1.0" encoding="UTF-8"?>
<svg version="1.1" xmlns="http://www.w3.org/2000/svg" width="512" height="512">
<path d="M0 0 C0.96421875 -0.02449219 1.9284375 -0.04898438 2.921875 -0.07421875 C18.23485476 -0.13663579 26.85043922 10.923422 37.05584717 21.03367615 C40.15989182 24.11878595 43.25740003 27.21040329 46.35449219 30.30249023 C48.07016716 32.0118902 49.78602815 33.72110349 51.50205994 35.43014526 C56.62081604 40.52980179 61.73537286 45.6336557 66.84904802 50.73840556 C68.7794194 52.66525867 70.7101038 54.59179796 72.64080386 56.51832173 C81.16675101 65.02583035 89.69135508 73.53468209 98.21194077 82.04756069 C100.28890793 84.12261844 102.3658806 86.19767068 104.44287109 88.27270508 C104.9589998 88.78835005 105.47512851 89.30399501 106.00689748 89.83526558 C114.37921347 98.19927026 122.76002235 106.55471084 131.14438471 114.90663802 C139.77423484 123.50337711 148.39649839 132.10766656 157.01140523 140.71938092 C161.83995759 145.54577372 166.67171257 150.36885953 171.51198578 155.18350029 C176.06183503 159.70930752 180.60132767 164.24533465 185.13403511 168.788311 C186.79540397 170.45017479 188.46017863 172.10864209 190.12865257 173.76337242 C192.41254467 176.02950439 194.68363678 178.30776552 196.9520874 180.58934021 C197.93701396 181.5578129 197.93701396 181.5578129 198.94183803 182.54585069 C207.58675033 191.3113094 211.5513865 199.3072055 211.56469727 211.59008789 C211.38567082 220.35179045 208.12058667 226.24331591 202.25 232.58203125 C194.55375434 239.48159523 186.89653117 240.76540722 176.8515625 240.640625 C162.08754755 239.55173886 152.6419829 226.92357429 142.86254883 217.03759766 C141.8677735 216.03597065 140.87273475 215.03460521 139.87745667 214.03347778 C137.75586257 211.89868362 135.63573297 209.76244986 133.51667213 207.62514114 C130.16180736 204.24216125 126.80129119 200.86483269 123.43962097 197.48861694 C122.28357816 196.32743236 121.12754279 195.16624037 119.9715147 194.00504112 C119.39322174 193.4241626 118.81492879 192.84328409 118.2191118 192.24480319 C110.40870841 184.39847766 102.60324547 176.5472834 94.80786133 168.68603516 C89.52712416 163.36077187 84.23927034 158.0426869 78.94327754 152.73259389 C76.14819309 149.92945557 73.35691752 147.12274615 70.57444191 144.30708694 C67.96210969 141.66364296 65.34056986 139.02969202 62.7117672 136.40262985 C61.29536649 134.98226315 59.88895728 133.55195454 58.48291016 132.12133789 C54.01872132 127.67835279 50.38605151 124.10603807 44.25 122.375 C39.74089224 123.1707249 37.09105819 124.79737116 34.25 128.375 C33.11363888 131.715252 33.12410707 134.89083111 33.12250805 138.39904213 C33.1195004 139.64092816 33.11649275 140.88281419 33.11339396 142.16233313 C33.11508154 143.54284336 33.1168526 144.9233535 33.11869812 146.30386353 C33.11699609 147.76861832 33.11484647 149.23337265 33.11228687 150.6981262 C33.10768736 153.88638491 33.10626949 157.07462421 33.10725212 160.26288605 C33.10884393 165.45034042 33.10364478 170.63777549 33.09762573 175.82522583 C33.08950961 183.35748921 33.08456778 190.8897492 33.08133507 198.42201614 C33.07583921 210.32964758 33.05894214 222.23725036 33.03999329 234.14486694 C33.03363637 238.21853824 33.02732794 242.2922096 33.02101612 246.36588097 C33.01943236 247.38398456 33.0178486 248.40208816 33.01621684 249.45104337 C32.99827647 261.04304378 32.98205228 272.63504622 32.96704102 284.22705078 C32.96566514 285.28682453 32.96428927 286.34659828 32.96287171 287.43848638 C32.94094876 304.60656931 32.93018729 321.77464487 32.92267027 338.94273932 C32.91459697 356.56888075 32.89129908 374.194959 32.8547166 391.82106435 C32.83269896 402.69248791 32.82302471 413.56378152 32.82921693 424.43522625 C32.83239349 431.8883608 32.82104837 439.34138445 32.79832252 446.79448469 C32.78566526 451.09344619 32.7794721 455.3921606 32.79073906 459.69113159 C32.80093098 463.63060732 32.79261025 467.56960406 32.7698761 471.50902335 C32.76489496 472.93033009 32.76658456 474.35168009 32.77580877 475.77296562 C32.84397714 487.17777877 31.23400081 496.10278855 23.25390625 504.6171875 C14.98504386 511.87057556 5.94669313 513.3136454 -4.69042969 512.64013672 C-11.77459419 511.72816391 -17.8494483 507.7123786 -22.75 502.6875 C-29.66112027 493.48393131 -30.33277233 483.74469164 -30.24879456 472.57743835 C-30.25252793 471.10378666 -30.25802265 469.63013858 -30.26511139 468.15649921 C-30.27947904 464.13384052 -30.26924339 460.11157252 -30.25482833 456.0889281 C-30.24366842 451.74061596 -30.25572231 447.39236001 -30.26501465 443.04405212 C-30.27807908 435.51786928 -30.27695965 427.99179762 -30.26642036 420.46561241 C-30.25145683 409.57761735 -30.26141276 398.68975227 -30.27793955 387.80176459 C-30.30437395 370.12622171 -30.31526036 352.45070806 -30.31420898 334.77514648 C-30.3141215 333.18984977 -30.3141215 333.18984977 -30.31403225 331.57252685 C-30.31376638 327.28984921 -30.31344909 323.00717157 -30.31306899 318.72449393 C-30.31210192 306.92399491 -30.31343193 295.12349677 -30.31616211 283.32299805 C-30.316402 282.26591 -30.31664189 281.20882195 -30.31688906 280.11970093 C-30.32129352 262.502416 -30.33751607 244.88515824 -30.3613829 227.26788932 C-30.37545996 216.40443751 -30.37832783 205.54108882 -30.36676001 194.67763344 C-30.35944484 187.24004242 -30.3624861 179.80250343 -30.37371845 172.36491742 C-30.37979884 168.07250624 -30.38086033 163.78024057 -30.36884117 159.48783875 C-30.357907 155.55942613 -30.36068298 151.63127182 -30.37438463 147.70287011 C-30.37688267 146.28116299 -30.37428812 144.85943598 -30.36611075 143.43775018 C-30.35571636 141.50597319 -30.36556911 139.574119 -30.37641239 137.64234447 C-30.37600786 136.03254091 -30.37600786 136.03254091 -30.37559515 134.39021605 C-30.81895212 130.81970394 -31.884376 128.43920146 -33.75 125.375 C-37.19447356 123.0786843 -39.05862381 122.6201822 -43.12413979 122.77622604 C-46.48160657 123.54182798 -47.92140482 124.92248175 -50.41610718 127.27960205 C-51.28966228 128.10016335 -52.16321739 128.92072464 -53.06324387 129.76615143 C-57.42561059 134.0020231 -61.75003948 138.2694321 -66.02978516 142.58886719 C-67.01309574 143.57738765 -67.9966596 144.56565621 -68.98045349 145.55369568 C-71.07753023 147.66061537 -73.17311156 149.76900665 -75.26756668 151.87853241 C-78.58534379 155.21961696 -81.90820846 158.55561117 -85.23202515 161.89068604 C-94.67568671 171.36758612 -104.11499712 180.84879141 -113.54394531 190.34033203 C-118.76758887 195.59856626 -123.99663075 200.85136944 -129.23166692 206.09826207 C-132.53215167 209.40680583 -135.82598524 212.72178372 -139.11496377 216.04176378 C-141.16565358 218.1085366 -143.22268634 220.16890544 -145.28152657 222.22755623 C-146.67815669 223.62773454 -148.06729293 225.03537546 -149.45613098 226.44328308 C-157.74463401 234.70555246 -165.38023077 240.61289854 -177.5 240.75 C-187.21881877 240.5760843 -194.00548509 237.84083164 -201.0625 231.16796875 C-207.54971121 224.27530684 -209.19860794 217.39444955 -209.10473633 208.1237793 C-208.52974683 189.48093803 -189.97606136 176.45949513 -177.64941406 164.17675781 C-176.05303428 162.58230125 -174.45688501 160.98761386 -172.86094666 159.39271545 C-169.4467324 155.9816421 -166.03097609 152.57212346 -162.61399078 149.16382599 C-157.20641218 143.7698563 -151.80272738 138.37199689 -146.39959717 132.97357178 C-138.82235215 125.4036374 -131.24371684 117.8350991 -123.66357422 110.26806641 C-123.1841607 109.7894807 -122.70474718 109.31089499 -122.21080598 108.81780669 C-118.80725311 105.42015525 -115.4036331 102.02257107 -112 98.625 C-108.10493171 94.73686525 -104.20989729 90.84869658 -100.31494141 86.96044922 C-99.83490891 86.48124485 -99.35487641 86.00204048 -98.86029747 85.50831476 C-90.84295102 77.50467617 -82.82760643 69.49903623 -74.81361747 61.49203563 C-69.44632264 56.12971065 -64.07660222 50.76983028 -58.7049861 45.41183424 C-55.36306812 42.0773918 -52.02323781 38.74086427 -48.68396187 35.40377617 C-47.1397258 33.86140685 -45.59462814 32.31989959 -44.04858971 30.77933693 C-41.93201116 28.67001745 -39.81858632 26.55758547 -37.70587158 24.44439697 C-37.09954022 23.84166057 -36.49320885 23.23892416 -35.86850381 22.61792302 C-32.17104043 18.91162126 -28.68338893 15.07562597 -25.28199267 11.09543014 C-23.38463785 8.96469774 -21.34243691 7.21097599 -19.0625 5.5 C-17.97388672 4.66855469 -17.97388672 4.66855469 -16.86328125 3.8203125 C-11.23527942 -0.02878302 -6.68803867 0.00880005 0 0 Z " fill="#000000" transform="translate(254.75,-0.375)"/>
</svg>
