<?xml version="1.0" encoding="UTF-8"?>
<svg version="1.1" xmlns="http://www.w3.org/2000/svg" width="512" height="512">
<path d="M0 0 C0.84064499 0.00007553 1.68128998 0.00015106 2.54740906 0.00022888 C3.45062393 0.00539017 4.35383881 0.01055145 5.28442383 0.01586914 C6.21241287 0.01728409 7.14040192 0.01869904 8.09651184 0.02015686 C11.06152566 0.02575602 14.02646407 0.03830835 16.99145508 0.05102539 C19.00121961 0.0560405 21.01098533 0.06060339 23.02075195 0.06469727 C27.94851367 0.07487439 32.87622485 0.09363591 37.80395508 0.11352539 C42.39213067 19.60747562 46.85606521 39.12428875 51.17504883 58.67993164 C51.60249989 60.61286235 52.02995131 62.54579298 52.45743138 64.47871727 C53.63777794 69.81649678 54.81667753 75.15459365 55.99403614 80.49303299 C57.50468028 87.34266072 59.02004827 94.19122203 60.53925651 101.03895527 C61.87064977 107.04157571 63.19627941 113.04545548 64.51979256 119.04981804 C65.07904248 121.58317222 65.64003486 124.11614242 66.20281792 126.64871407 C66.98292989 130.16138725 67.7564476 133.67544997 68.52832031 137.18994141 C68.87650314 138.74736053 68.87650314 138.74736053 69.23171997 140.33624268 C69.44037186 141.29263138 69.64902374 142.24902008 69.86399841 143.23439026 C70.13796023 144.47428884 70.13796023 144.47428884 70.41745663 145.73923588 C70.80395508 148.11352539 70.80395508 148.11352539 70.80395508 153.11352539 C57.93395508 153.11352539 45.06395508 153.11352539 31.80395508 153.11352539 C27.80395508 138.11352539 27.80395508 138.11352539 26.80395508 130.11352539 C9.31395508 130.11352539 -8.17604492 130.11352539 -26.19604492 130.11352539 C-26.52604492 131.76352539 -26.85604492 133.41352539 -27.19604492 135.11352539 C-29.50604492 141.05352539 -31.81604492 146.99352539 -34.19604492 153.11352539 C-49.04604492 153.11352539 -63.89604492 153.11352539 -79.19604492 153.11352539 C-77.2094847 147.15384472 -75.20145874 141.58718633 -72.59838867 135.92602539 C-72.25236603 135.1631572 -71.90634338 134.400289 -71.54983521 133.61430359 C-70.80434008 131.9713209 -70.05697137 130.32918726 -69.30789185 128.68783569 C-67.26793062 124.21599428 -65.2440563 119.73688058 -63.21948242 115.25805664 C-62.80092484 114.33273636 -62.38236725 113.40741608 -61.9511261 112.45405579 C-57.65087529 102.93336209 -53.44678189 93.37140331 -49.25854492 83.80102539 C-48.52050057 82.11634122 -47.78238179 80.43168965 -47.04418945 78.74707031 C-45.54305608 75.32085928 -44.04231365 71.89447731 -42.54174805 68.46801758 C-38.7846488 59.8906163 -35.02308276 51.31521059 -31.24899292 42.74526978 C-30.43592532 40.89735977 -29.62413173 39.04888856 -28.81375122 37.19979858 C-25.120147 28.77294272 -21.41154581 20.35401452 -17.37963867 12.08227539 C-16.85297607 11.00010742 -16.32631348 9.91793945 -15.78369141 8.80297852 C-12.26271649 2.83849141 -6.90237182 -0.02072784 0 0 Z M6.80395508 45.11352539 C6.34021484 46.30316895 5.87647461 47.4928125 5.39868164 48.71850586 C3.66214374 53.17294232 1.92502708 57.6271529 0.18774414 62.08129883 C-0.56110934 64.00148556 -1.3098102 65.92173183 -2.05834961 67.84204102 C-3.14029523 70.61759217 -4.22280717 73.3929219 -5.30541992 76.16821289 C-5.63475525 77.01342499 -5.96409058 77.85863708 -6.30340576 78.72946167 C-6.62343567 79.54955719 -6.94346558 80.36965271 -7.27319336 81.21459961 C-7.58478394 82.01363708 -7.89637451 82.81267456 -8.21740723 83.63592529 C-8.91038815 85.39033308 -9.61510845 87.14012484 -10.32800293 88.88653564 C-10.69470093 89.78531433 -11.06139893 90.68409302 -11.43920898 91.61010742 C-11.77535217 92.42528839 -12.11149536 93.24046936 -12.45782471 94.08035278 C-13.30980747 96.06633767 -13.30980747 96.06633767 -13.19604492 98.11352539 C-2.30604492 98.11352539 8.58395508 98.11352539 19.80395508 98.11352539 C17.1789904 84.75708747 14.4996523 71.41680828 11.61645508 58.11352539 C11.36686035 56.93298584 11.11726563 55.75244629 10.86010742 54.53613281 C10.50166748 52.90381714 10.50166748 52.90381714 10.13598633 51.23852539 C9.9269165 50.27172852 9.71784668 49.30493164 9.50244141 48.30883789 C9.27194092 47.58438477 9.04144043 46.85993164 8.80395508 46.11352539 C8.14395508 45.78352539 7.48395508 45.45352539 6.80395508 45.11352539 Z " fill="#000000" transform="translate(441.196044921875,179.886474609375)"/>
<path d="M0 0 C1.76790894 0.00519653 1.76790894 0.00519653 3.5715332 0.01049805 C15.47965518 0.15841995 26.73638455 1.49404324 37.75 6.3125 C36.48201021 17.39622254 34.7861826 28.34426304 32.75 39.3125 C28.74621796 40.64709401 26.17101645 39.31520481 22.375 37.9375 C14.36889616 35.09158028 7.52276575 34.08499932 -0.9375 34 C-1.88044922 33.97099609 -2.82339844 33.94199219 -3.79492188 33.91210938 C-10.50152241 33.85218786 -16.42348853 34.8026603 -22.25 38.3125 C-24.56495116 40.88774082 -25.22001917 42.16804689 -25.9375 45.625 C-24.92227629 51.0702908 -21.61252642 53.13396878 -17.25 56.3125 C-13.76009046 58.33684312 -10.15631925 60.04899067 -6.5 61.75 C9.52839908 69.51000174 24.50636402 77.61290693 30.75 95.3125 C33.90498832 105.40441776 31.98490707 117.74043306 27.390625 127.07421875 C18.61454294 142.20617467 5.23129808 150.94752114 -11.46484375 155.5 C-33.73062717 161.00583966 -66.04404879 162.13409366 -87.25 151.3125 C-88.78106618 147.69671367 -87.95753356 144.4532432 -87.2890625 140.68359375 C-87.06476563 139.40162109 -86.84046875 138.11964844 -86.609375 136.79882812 C-86.48884766 136.13439697 -86.36832031 135.46996582 -86.24414062 134.78540039 C-85.87586871 132.75478994 -85.518909 130.72244835 -85.1640625 128.68945312 C-83.41171288 118.79763863 -83.41171288 118.79763863 -82.25 115.3125 C-81.074375 115.704375 -79.89875 116.09625 -78.6875 116.5 C-77.87539063 116.76941406 -77.06328125 117.03882813 -76.2265625 117.31640625 C-73.98913301 118.06515234 -71.75535247 118.82481629 -69.5234375 119.58984375 C-68.20312809 120.03907157 -66.88281558 120.4882903 -65.5625 120.9375 C-64.32113281 121.36289062 -63.07976562 121.78828125 -61.80078125 122.2265625 C-54.69569569 124.39951496 -47.88025567 124.5570001 -40.5 124.625 C-39.46617187 124.65400391 -38.43234375 124.68300781 -37.3671875 124.71289062 C-29.19642386 124.77977975 -21.9736479 123.5041982 -15.625 118.0625 C-13.82762985 114.4677597 -13.23674336 111.24631988 -14.25 107.3125 C-17.01442975 103.08377611 -20.04523647 100.97232337 -24.4375 98.5625 C-25.03973389 98.22742432 -25.64196777 97.89234863 -26.26245117 97.54711914 C-29.68957776 95.6544096 -33.15360731 93.83782118 -36.6328125 92.04296875 C-49.84113014 85.22220864 -63.87990361 77.4053157 -69.5625 62.7421875 C-72.75207395 51.4699432 -71.35751135 39.33939557 -65.6875 29.0625 C-55.48984166 13.803596 -40.21807475 5.49437715 -22.57519531 1.74389648 C-15.02463661 0.34727931 -7.66839238 -0.03683291 0 0 Z " fill="#000000" transform="translate(334.25,176.6875)"/>
<path d="M0 0 C-2.19727385 6.95207434 -4.86608563 13.5696109 -7.796875 20.2421875 C-8.26208054 21.31000961 -8.72728607 22.37783173 -9.20658875 23.47801208 C-10.201323 25.76028623 -11.19776384 28.04181719 -12.19577026 30.32266235 C-14.30419224 35.14165828 -16.40396687 39.96440519 -18.50413513 44.78700256 C-19.55431758 47.19842392 -20.60490423 49.60966929 -21.65589905 52.02073669 C-25.61474711 61.10458338 -29.54244499 70.20114355 -33.4375 79.3125 C-33.99655312 80.61882748 -34.55563552 81.92514242 -35.11474609 83.23144531 C-37.54878264 88.92040949 -39.97964836 94.61072774 -42.40985107 100.30133057 C-45.39639507 107.29465032 -48.38430893 114.28737987 -51.37515926 121.27885914 C-53.03250964 125.15346679 -54.68763407 129.02901535 -56.34112263 132.90527248 C-57.61871619 135.89861043 -58.89945642 138.89060186 -60.1796875 141.8828125 C-60.65184189 142.99139114 -61.12399628 144.09996979 -61.61045837 145.24214172 C-62.04306473 146.2516539 -62.47567108 147.26116608 -62.92138672 148.30126953 C-63.30028046 149.18831573 -63.67917419 150.07536194 -64.06954956 150.98928833 C-65 153 -65 153 -66 154 C-67.41225046 154.0928726 -68.82908934 154.11746772 -70.24438477 154.11352539 C-71.59567223 154.11341209 -71.59567223 154.11341209 -72.97425842 154.11329651 C-73.95341721 154.10813522 -74.93257599 154.10297394 -75.94140625 154.09765625 C-76.93881332 154.0962413 -77.9362204 154.09482635 -78.96385193 154.09336853 C-82.16343124 154.08775114 -85.36294169 154.07519571 -88.5625 154.0625 C-90.72591045 154.05748724 -92.88932199 154.05292395 -95.05273438 154.04882812 C-100.36851325 154.03777607 -105.68425171 154.02102104 -111 154 C-117.18640461 134.20759538 -123.03713303 114.32579998 -128.81781006 94.41204834 C-130.62353604 88.19289993 -132.43271081 81.9747539 -134.24197388 75.75663376 C-134.90009534 73.49381779 -135.55738444 71.23076122 -136.21459961 68.96768188 C-138.26386408 61.91727922 -140.32893444 54.87227184 -142.4375 47.83935547 C-142.81338257 46.58319931 -143.18926514 45.32704315 -143.57653809 44.03282166 C-144.27733396 41.69671326 -144.98163731 39.36165312 -145.69006348 37.02784729 C-145.99665894 36.00601852 -146.30325439 34.98418976 -146.61914062 33.93139648 C-146.88746704 33.04548325 -147.15579346 32.15957001 -147.43225098 31.24681091 C-148 29 -148 29 -148 26 C-136.51871796 29.91167068 -126.67016179 40.75371279 -118 49 C-117.36707031 49.58007812 -116.73414062 50.16015625 -116.08203125 50.7578125 C-102.04858795 64.02458312 -90.87340163 81.31862709 -86 100 C-83.98557494 97.98557494 -83.41091542 96.87434127 -82.40625 94.28027344 C-82.10348145 93.50629715 -81.80071289 92.73232086 -81.48876953 91.93489075 C-81.16247559 91.08497055 -80.83618164 90.23505035 -80.5 89.359375 C-79.97768799 88.017967 -79.97768799 88.017967 -79.44482422 86.64945984 C-78.29169304 83.68483436 -77.14591323 80.71742204 -76 77.75 C-75.20107461 75.69257459 -74.40158808 73.635367 -73.6015625 71.57836914 C-71.92490733 67.26614045 -70.25073372 62.95295988 -68.578125 58.63916016 C-64.80336751 48.91031702 -60.99634065 39.19410458 -57.19042969 29.47741699 C-56.01423129 26.47384145 -54.83898128 23.46989662 -53.6640625 20.46582031 C-53.29812988 19.53034866 -52.93219727 18.59487701 -52.55517578 17.63105774 C-51.87375454 15.88906434 -51.19243235 14.14703219 -50.51123047 12.404953 C-49.02138929 8.5976169 -47.52615681 4.79297661 -46 1 C-30.65444642 0.19335549 -15.36588128 -0.13170375 0 0 Z " fill="#000000" transform="translate(189,179)"/>
<path d="M0 0 C1.77206192 0.00015919 3.54412846 0.00585754 5.31616211 0.01586914 C6.24698105 0.01728409 7.17779999 0.01869904 8.13682556 0.02015686 C11.12241777 0.02577367 14.10793615 0.03832899 17.09350586 0.05102539 C19.11238499 0.05603823 21.13126529 0.06060151 23.15014648 0.06469727 C28.11046158 0.07574856 33.07072118 0.09302444 38.03100586 0.11352539 C37.41826731 8.59559273 36.16994787 16.89656951 34.73022461 25.27392578 C34.49489643 26.66138833 34.25993173 28.04891258 34.02529907 29.43649292 C33.39285112 33.16999978 32.7551434 36.90258983 32.11624527 40.63499761 C31.44672785 44.55067883 30.78154746 48.46709712 30.11572266 52.38340759 C28.99898297 58.94784597 27.87883117 65.51169506 26.7565918 72.07519531 C25.45866772 79.66644058 24.16608182 87.25858023 22.87632656 94.85121733 C21.63363312 102.16613083 20.38732595 109.48042407 19.13931274 116.79443169 C18.60866538 119.90464303 18.07927085 123.01506379 17.5508728 126.12565804 C16.93000109 129.77958895 16.30596928 133.43296621 15.6794548 137.08593369 C15.33996754 139.06987002 15.00363907 141.05434607 14.66738892 143.03883362 C14.46551971 144.21208191 14.26365051 145.3853302 14.05566406 146.59413147 C13.7935186 148.12960931 13.7935186 148.12960931 13.52607727 149.69610691 C13.03100586 152.11352539 13.03100586 152.11352539 12.03100586 154.11352539 C-1.82899414 154.11352539 -15.68899414 154.11352539 -29.96899414 154.11352539 C-28.84396538 139.48815147 -28.84396538 139.48815147 -27.94433594 134.24200439 C-27.74246674 133.04759735 -27.54059753 131.85319031 -27.33261108 130.62258911 C-27.11335968 129.36179535 -26.89410828 128.10100159 -26.66821289 126.80200195 C-26.43273956 125.42249908 -26.19777974 124.04290848 -25.96328735 122.66323853 C-25.3324043 118.96062683 -24.69415627 115.2593215 -24.05423355 111.55826283 C-23.38355767 107.67302389 -22.71908428 103.78672358 -22.05371094 99.90057373 C-20.93814645 93.39076159 -19.81785217 86.88177736 -18.69458008 80.37329102 C-17.39511346 72.84359922 -16.10279978 65.31270635 -14.81431484 57.78112817 C-13.57242446 50.52266152 -12.32598962 43.26498281 -11.07730103 36.0076828 C-10.54640239 32.92180877 -10.01703131 29.8356784 -9.48886108 26.74933624 C-8.868765 23.1272513 -8.24468263 19.50587573 -7.61744308 15.88502121 C-7.27741033 13.91651439 -6.94134792 11.94732306 -6.6053772 9.9781189 C-6.403508 8.81754974 -6.20163879 7.65698059 -5.99365234 6.46124268 C-5.73150688 4.93934011 -5.73150688 4.93934011 -5.46406555 3.38669205 C-4.6209086 -0.48474191 -4.3088333 0.12324583 0 0 Z " fill="#000000" transform="translate(208.968994140625,178.886474609375)"/>
<path d="M0 0 C8.98866155 -0.06969384 17.97722922 -0.12290926 26.9661026 -0.15543652 C31.14058518 -0.17105268 35.31488207 -0.19221633 39.48925781 -0.22631836 C43.52227082 -0.25905713 47.55510588 -0.27688343 51.58824158 -0.28463173 C53.12233783 -0.29014931 54.65642501 -0.30092355 56.19044495 -0.31719017 C74.13324926 -0.49978435 74.13324926 -0.49978435 80.84521484 5.57519531 C83.76712013 9.55585044 84.54704775 14.02973669 85.4765625 18.796875 C85.77924545 20.23338409 85.77924545 20.23338409 86.08804321 21.69891357 C86.51784042 23.74494393 86.9401585 25.79255741 87.35559082 27.84155273 C87.99716428 30.98610128 88.66699154 34.1232511 89.34667969 37.25976562 C90.4857186 42.52167555 91.60101779 47.78816242 92.70458984 53.05761719 C93.15918617 55.22233005 93.61697157 57.38637519 94.07763672 59.54980469 C94.75363045 62.7245694 95.42085319 65.90105939 96.0859375 69.078125 C96.29415131 70.04872864 96.50236511 71.01933228 96.71688843 72.01934814 C96.90103302 72.90918396 97.08517761 73.79901978 97.27490234 74.71582031 C97.43969086 75.49773743 97.60447937 76.27965454 97.77426147 77.08526611 C98 79 98 79 97 81 C96.46632813 79.93523437 95.93265625 78.87046875 95.3828125 77.7734375 C84.26050518 55.93888518 69.87089527 38.24349917 49 25 C47.91589844 24.30519531 46.83179688 23.61039063 45.71484375 22.89453125 C31.91493586 14.55002555 16.60280163 8.92653286 1 5 C0.67 3.35 0.34 1.7 0 0 Z " fill="#000000" transform="translate(0,178)"/>
</svg>
