<?xml version="1.0" encoding="UTF-8"?>
<svg version="1.1" xmlns="http://www.w3.org/2000/svg" width="512" height="512">
<path d="M0 0 C1.37738342 0.00081573 1.37738342 0.00081573 2.78259277 0.00164795 C26.2066523 0.06515394 48.31729405 3.2467417 70.6875 10.375 C71.3774707 10.59349609 72.06744141 10.81199219 72.77832031 11.03710938 C90.47999304 16.80457167 108.83681864 25.10359963 123.6875 36.375 C124.73421875 37.14199219 125.7809375 37.90898438 126.859375 38.69921875 C134.59949084 44.44162802 141.71222983 50.73422798 148.6875 57.375 C149.46738281 58.09042969 150.24726563 58.80585937 151.05078125 59.54296875 C169.9163719 77.40328814 185.6107321 104.56675672 189.6875 130.375 C189.11661148 130.36611755 188.54572296 130.35723511 187.95753479 130.3480835 C151.0783888 129.36943871 151.0783888 129.36943871 114.6875 134.375 C113.17273034 134.68262757 111.65712223 134.98616127 110.140625 135.28515625 C83.55908233 140.7436249 57.66580363 152.56401857 35.6875 168.375 C34.7907959 169.01356934 34.7907959 169.01356934 33.87597656 169.66503906 C18.0375167 181.09278858 4.62602514 195.22998132 -6.3125 211.375 C-6.72580566 211.98134277 -7.13911133 212.58768555 -7.56494141 213.21240234 C-17.27881797 227.72218554 -23.63358296 244.34634933 -27.3125 261.375 C-27.48910156 262.1486792 -27.66570312 262.9223584 -27.84765625 263.71948242 C-29.50538638 271.66497707 -29.62316871 279.47191194 -29.5625 287.5625 C-29.56072754 288.24321564 -29.55895508 288.92393127 -29.55712891 289.62527466 C-29.52641251 299.66230167 -29.10798238 309.48381583 -27.3125 319.375 C-40.2670535 317.3503685 -52.69772477 314.72915934 -65.1015625 310.39819336 C-66.51501953 309.94005249 -66.51501953 309.94005249 -67.95703125 309.47265625 C-69.18450073 309.04738647 -69.18450073 309.04738647 -70.43676758 308.61352539 C-78.75705128 307.92340593 -87.84758183 313.65255672 -95.265625 316.8828125 C-96.49611723 317.41467876 -97.72681371 317.94607272 -98.95770264 318.47702026 C-103.48558663 320.43116443 -108.01036975 322.39243899 -112.53430176 324.35571289 C-116.37643891 326.02305992 -120.22018124 327.6865849 -124.0663681 329.34457016 C-125.85882002 330.1190699 -127.64882613 330.89922221 -129.43878174 331.67947388 C-130.53051697 332.15021332 -131.6222522 332.62095276 -132.74707031 333.10595703 C-133.7036554 333.52104523 -134.66024048 333.93613342 -135.64581299 334.36380005 C-138.20375832 335.33376547 -140.61886827 335.92669797 -143.3125 336.375 C-141.68393505 330.80666975 -139.1529587 325.85051201 -136.5234375 320.70703125 C-135.57282746 318.82621696 -134.62230934 316.94535621 -133.671875 315.06445312 C-132.17482042 312.11398341 -130.67580568 309.16452848 -129.17480469 306.21606445 C-127.72343206 303.36142969 -126.2793341 300.50320512 -124.8359375 297.64453125 C-124.38286224 296.7601387 -123.92978699 295.87574615 -123.46298218 294.96455383 C-123.04900177 294.14327499 -122.63502136 293.32199615 -122.20849609 292.47583008 C-121.84146576 291.75446365 -121.47443542 291.03309723 -121.09628296 290.28987122 C-120.12309528 288.25710753 -120.12309528 288.25710753 -120.3125 285.375 C-122.66742038 283.44330023 -125.0137641 281.68506346 -127.5 279.9375 C-155.7214668 259.42505196 -177.0138158 231.24015464 -187.125 197.6875 C-187.41733521 196.72783325 -187.41733521 196.72783325 -187.71557617 195.7487793 C-191.02862591 184.0983501 -191.72019174 172.29820168 -191.6875 160.25 C-191.68728851 159.52677551 -191.68707703 158.80355103 -191.68685913 158.05841064 C-191.6529895 146.42234649 -190.68582007 135.55102838 -187.3125 124.375 C-187.13058105 123.73046875 -186.94866211 123.0859375 -186.76123047 122.421875 C-179.69673954 97.573049 -165.76383774 77.12339663 -148.3125 58.375 C-147.260625 57.20710938 -147.260625 57.20710938 -146.1875 56.015625 C-118.53709459 26.63706925 -75.61715835 8.14488519 -36.3125 2.375 C-35.18223389 2.20129883 -34.05196777 2.02759766 -32.88745117 1.84863281 C-21.91316349 0.30204602 -11.07364944 -0.0247996 0 0 Z M-82.3125 82.375 C-86.73871334 88.60072302 -87.30952978 94.89224118 -86.3125 102.375 C-84.21415873 109.18619331 -79.848418 114.06380235 -73.75 117.6875 C-67.8566701 120.416925 -61.12157616 120.54847157 -54.94140625 118.64453125 C-48.57737349 115.69710587 -43.99039413 111.11012651 -41.04296875 104.74609375 C-39.13902843 98.56592384 -39.270575 91.8308299 -42 85.9375 C-45.62369765 79.839082 -50.50130669 75.47334127 -57.3125 73.375 C-67.62959433 72.00031314 -75.61300367 74.18672671 -82.3125 82.375 Z M45.6875 82.375 C41.26128666 88.60072302 40.69047022 94.89224118 41.6875 102.375 C43.78584127 109.18619331 48.151582 114.06380235 54.25 117.6875 C60.1433299 120.416925 66.87842384 120.54847157 73.05859375 118.64453125 C79.42262651 115.69710587 84.00960587 111.11012651 86.95703125 104.74609375 C88.86097157 98.56592384 88.729425 91.8308299 86 85.9375 C82.37630235 79.839082 77.49869331 75.47334127 70.6875 73.375 C60.37040567 72.00031314 52.38699633 74.18672671 45.6875 82.375 Z " fill="#000000" transform="translate(191.3125,31.625)"/>
<path d="M0 0 C0.77698242 -0.00696899 1.55396484 -0.01393799 2.35449219 -0.02111816 C4.84445695 -0.03839405 7.33419657 -0.04483663 9.82421875 -0.046875 C10.67486908 -0.04788208 11.52551941 -0.04888916 12.40194702 -0.04992676 C25.02549581 -0.03980852 37.14188139 0.50739805 49.51171875 3.203125 C50.90863692 3.47377993 52.30577348 3.74331013 53.703125 4.01171875 C91.61225397 11.71111279 129.87169108 33.50916566 151.68603516 66.046875 C167.90538149 91.16379403 174.93787871 119.96185373 169.43286133 149.7746582 C164.6525799 171.30643569 152.56875705 192.2083844 136.51171875 207.203125 C135.36703125 208.37875 135.36703125 208.37875 134.19921875 209.578125 C115.13076637 228.203125 115.13076637 228.203125 109.51171875 228.203125 C109.87503296 228.92531219 110.23834717 229.64749939 110.6126709 230.39157104 C114.03080393 237.18781322 117.44511301 243.98595601 120.85511017 250.78628349 C122.60848453 254.28258154 124.36334393 257.77811765 126.12158203 261.27197266 C127.81735857 264.64184324 129.50925365 268.01363586 131.19844055 271.38681412 C131.84456142 272.67535183 132.49209333 273.96318297 133.14103699 275.25030136 C134.04759304 277.04896001 134.94873631 278.85034374 135.84960938 280.65185547 C136.36479126 281.67777802 136.87997314 282.70370056 137.4107666 283.76071167 C138.51171875 286.203125 138.51171875 286.203125 138.51171875 288.203125 C134.80385921 287.57809597 131.61831955 286.53162804 128.16845703 285.04516602 C127.12190948 284.59702042 126.07536194 284.14887482 124.99710083 283.68714905 C123.87012787 283.19871017 122.74315491 282.7102713 121.58203125 282.20703125 C120.40067596 281.69945786 119.21932068 281.19188446 118.00216675 280.66893005 C114.84943175 279.31420717 111.69925728 277.9536268 108.54956055 276.59185791 C106.04874454 275.51165541 103.54629986 274.4352617 101.04368782 273.35922813 C99.19678017 272.5650842 97.35016005 271.77027545 95.50363159 270.97525024 C93.05984458 269.92313667 90.61577387 268.87168182 88.17141724 267.82089233 C82.36596623 265.31974009 76.57527258 262.79283825 70.81201172 260.19580078 C69.76673309 259.72875229 68.72145447 259.2617038 67.64450073 258.78050232 C65.70297361 257.91107111 63.76569112 257.03206867 61.83377075 256.14149475 C54.67127211 252.94684358 49.21538084 252.29320792 41.51171875 254.203125 C31.12354239 256.25122821 20.99096298 256.56313197 10.44921875 256.515625 C9.63223511 256.51413452 8.81525146 256.51264404 7.97351074 256.5111084 C-4.42077569 256.47046344 -16.34226244 255.82952295 -28.48828125 253.203125 C-29.88656044 252.93277367 -31.28499824 252.66324138 -32.68359375 252.39453125 C-70.59194866 244.68900567 -108.84724749 222.89858501 -130.66259766 190.359375 C-146.86101544 165.27486545 -153.9413726 136.46106526 -148.40991211 106.68310547 C-141.06469168 73.79814986 -119.26508267 46.54905918 -91.48828125 28.203125 C-64.53367335 11.19358594 -32.04048631 0.19504149 0 0 Z M-56.48828125 82.203125 C-60.91449459 88.42884802 -61.48531103 94.72036618 -60.48828125 102.203125 C-58.38993998 109.01431831 -54.02419925 113.89192735 -47.92578125 117.515625 C-42.03245135 120.24505 -35.29735741 120.37659657 -29.1171875 118.47265625 C-22.75315474 115.52523087 -18.16617538 110.93825151 -15.21875 104.57421875 C-13.31480968 98.39404884 -13.44635625 91.6589549 -16.17578125 85.765625 C-19.7994789 79.667207 -24.67708794 75.30146627 -31.48828125 73.203125 C-41.80537558 71.82843814 -49.78878492 74.01485171 -56.48828125 82.203125 Z M39.51171875 82.203125 C35.08550541 88.42884802 34.51468897 94.72036618 35.51171875 102.203125 C37.61006002 109.01431831 41.97580075 113.89192735 48.07421875 117.515625 C53.96754865 120.24505 60.70264259 120.37659657 66.8828125 118.47265625 C73.24684526 115.52523087 77.83382462 110.93825151 80.78125 104.57421875 C82.68519032 98.39404884 82.55364375 91.6589549 79.82421875 85.765625 C76.2005211 79.667207 71.32291206 75.30146627 64.51171875 73.203125 C54.19462442 71.82843814 46.21121508 74.01485171 39.51171875 82.203125 Z " fill="#000000" transform="translate(341.48828125,191.796875)"/>
</svg>
