<?xml version="1.0" encoding="UTF-8"?>
<svg version="1.1" xmlns="http://www.w3.org/2000/svg" width="512" height="512">
<path d="M0 0 C1.24711994 -0.00226556 2.49423987 -0.00453111 3.77915132 -0.00686532 C7.20618719 -0.01206382 10.63317019 -0.01285655 14.06020617 -0.01167095 C17.76998941 -0.01146548 21.47976505 -0.01699956 25.18954468 -0.02172852 C32.44506639 -0.03000436 39.70057998 -0.03278197 46.95610602 -0.03334089 C52.85955662 -0.03381754 58.76300456 -0.03587969 64.66645432 -0.03904152 C81.43765965 -0.04783996 98.2088586 -0.0524622 114.98006625 -0.05171105 C115.88257304 -0.05167109 116.78507983 -0.05163113 117.7149353 -0.05158997 C118.61855582 -0.05154909 119.52217633 -0.0515082 120.45317928 -0.05146609 C135.08694971 -0.05105991 149.72069436 -0.06062436 164.35445733 -0.07472833 C179.41347123 -0.08912656 194.47247259 -0.09599661 209.53149354 -0.09513456 C217.97261226 -0.09480376 226.41370396 -0.09749903 234.85481644 -0.10831261 C242.04329506 -0.11746313 249.23173444 -0.11955579 256.4202164 -0.11280318 C260.08018879 -0.1095607 263.74008608 -0.10939792 267.40005112 -0.11815643 C305.59241514 -0.20361584 337.95214121 4.92048563 366.62362671 32.32121277 C380.03631213 46.055047 389.59218753 63.48454849 394.06112671 82.13371277 C394.23460947 82.85745055 394.40809223 83.58118834 394.58683205 84.32685757 C396.40553924 93.00952708 396.35780719 101.61482032 396.35165405 110.43669128 C396.35764917 112.16278369 396.36445696 113.88887343 396.37200928 115.61495972 C396.38958001 120.27653981 396.39436097 124.93804633 396.39564085 129.59965634 C396.3970685 132.52140062 396.40134974 135.44312656 396.40663528 138.36486626 C396.42510862 148.58478341 396.4333096 158.80464861 396.43173218 169.02458191 C396.4305327 178.50679413 396.45160403 187.98877803 396.4832195 197.47093254 C396.5094959 205.64717494 396.52009468 213.82334331 396.51882136 221.99962753 C396.5183149 226.86713866 396.52382089 231.73444681 396.54517746 236.60191536 C396.5647516 241.18791767 396.56455545 245.7735274 396.5501442 250.35954475 C396.54807827 252.02744633 396.55262185 253.69537374 396.56486511 255.36323166 C396.77640179 286.21847313 385.11983509 312.88122593 363.62362671 334.88371277 C340.78063189 357.12806359 311.15210158 364.30945192 280.12225342 364.26742554 C278.25157351 364.27082387 278.25157351 364.27082387 276.3431021 364.27429086 C272.91606623 364.27948936 269.48908323 364.28028208 266.06204724 364.27909648 C262.352264 364.27889102 258.64248836 364.28442509 254.93270874 364.28915405 C247.67718703 364.2974299 240.42167344 364.30020751 233.1661474 364.30076643 C227.2626968 364.30124308 221.35924886 364.30330523 215.4557991 364.30646706 C198.68459377 364.31526549 181.91339482 364.31988774 165.14218716 364.31913658 C164.23968038 364.31909663 163.33717359 364.31905667 162.40731812 364.3190155 C161.5036976 364.31897462 160.60007709 364.31893374 159.66907413 364.31889162 C145.03530371 364.31848545 130.40155906 364.32804989 115.76779608 364.34215387 C100.70878219 364.3565521 85.64978082 364.36342215 70.59075987 364.36256009 C62.14964116 364.3622293 53.70854946 364.36492457 45.26743698 364.37573814 C38.07895835 364.38488867 30.89051898 364.38698133 23.70203702 364.38022872 C20.04206462 364.37698624 16.38216734 364.37682346 12.7222023 364.38558197 C-25.47016172 364.47104138 -57.82988779 359.34693991 -86.50137329 331.94621277 C-99.91405871 318.21237854 -109.46993411 300.78287705 -113.93887329 282.13371277 C-114.11235605 281.40997499 -114.28583881 280.6862372 -114.46457863 279.94056797 C-116.28328583 271.25789846 -116.23555377 262.65260521 -116.22940063 253.83073425 C-116.23539575 252.10464185 -116.24220354 250.37855211 -116.24975586 248.65246582 C-116.26732659 243.99088573 -116.27210755 239.3293792 -116.27338743 234.66776919 C-116.27481508 231.74602492 -116.27909632 228.82429898 -116.28438187 225.90255928 C-116.3028552 215.68264212 -116.31105618 205.46277693 -116.30947876 195.24284363 C-116.30827928 185.76063141 -116.32935061 176.27864751 -116.36096609 166.79649299 C-116.38724248 158.6202506 -116.39784126 150.44408223 -116.39656794 142.26779801 C-116.39606148 137.40028688 -116.40156747 132.53297873 -116.42292404 127.66551018 C-116.44249818 123.07950787 -116.44230203 118.49389814 -116.42789078 113.90788078 C-116.42582485 112.23997921 -116.43036843 110.57205179 -116.44261169 108.90419388 C-116.65414837 78.0489524 -104.99758167 51.3861996 -83.50137329 29.38371277 C-60.65837847 7.13936195 -31.02984816 -0.04202639 0 0 Z M71.06112671 110.13371277 C70.01701627 113.2660441 69.9302991 115.45729582 69.92068481 118.74453735 C69.91497467 119.91244812 69.90926453 121.08035889 69.90338135 122.28366089 C69.90226349 123.56634354 69.90114563 124.84902618 69.8999939 126.170578 C69.89536503 127.53397252 69.89034027 128.89736574 69.88494873 130.26075745 C69.87183148 133.96527519 69.86538138 137.66977482 69.86093807 141.37431216 C69.85800694 143.68817371 69.85390211 146.0020303 69.8494339 148.31588936 C69.83576226 155.55392319 69.82609333 162.79194571 69.82223201 170.02999157 C69.8177485 178.38847753 69.80018575 186.74680018 69.77123141 195.10523647 C69.74963062 201.56475741 69.73952863 208.02423234 69.73819089 214.48378903 C69.73714193 218.34267489 69.7312147 222.20140717 69.71337128 226.06025505 C69.69691762 229.68903906 69.69472172 233.31755357 69.70351028 236.94636154 C69.70465023 238.91367294 69.69091294 240.88097528 69.67675781 242.84823608 C69.68232697 244.01896667 69.68789612 245.18969727 69.69363403 246.39590454 C69.69216747 247.41335471 69.69070091 248.43080488 69.68918991 249.47908688 C70.11371283 252.50903587 71.03774756 253.88518406 73.06112671 256.13371277 C78.84790539 255.62454817 83.13784712 253.95012594 88.29159546 251.33683777 C89.46050575 250.75962227 89.46050575 250.75962227 90.6530304 250.17074585 C92.32168052 249.34569044 93.9881988 248.51631172 95.65274048 247.68299866 C100.06166195 245.47625732 104.48626162 243.30131409 108.90878296 241.12199402 C109.78854797 240.68738358 110.66831299 240.25277313 111.57473755 239.80499268 C118.72746005 236.2778881 125.93424232 232.89026724 133.18612671 229.57121277 C144.85821457 224.21375989 156.40341419 218.61771159 167.93725586 212.97026062 C176.04710109 209.00059833 184.16189429 205.05113992 192.36190796 201.27043152 C193.00767792 200.97266815 193.65344788 200.67490479 194.31878662 200.36811829 C197.30272376 198.99544702 200.29064951 197.63276432 203.28378296 196.28019714 C212.07836695 192.40833212 212.07836695 192.40833212 220.06112671 187.13371277 C221.1447371 184.58806144 221.1447371 184.58806144 220.06112671 182.13371277 C216.79665794 179.21598997 213.47578828 177.16618392 209.55331421 175.25090027 C208.48210327 174.72238464 207.41089233 174.19386902 206.30722046 173.64933777 C205.19475952 173.10793152 204.08229858 172.56652527 202.93612671 172.00871277 C195.35492912 168.29660384 187.83602651 164.50654325 180.38143921 160.54777527 C168.05652024 154.01485169 155.55137971 147.84265062 143.06112671 141.63371277 C129.73584162 135.00967825 116.42051905 128.38724046 103.27598572 121.40986633 C97.41500714 118.3026175 91.49870152 115.33937451 85.49862671 112.50871277 C84.59950562 112.07687683 83.70038452 111.64504089 82.77401733 111.20011902 C81.91872437 110.79406433 81.0634314 110.38800964 80.18222046 109.96965027 C79.43383911 109.61435242 78.68545776 109.25905457 77.91439819 108.89299011 C74.62984667 107.5473235 74.15695966 108.06982413 71.06112671 110.13371277 Z " fill="#F61C0D" transform="translate(115.93887329101563,73.86628723144531)"/>
</svg>
